<svg width="60" height="60" viewBox="0 0 60 60" fill="none" xmlns="http://www.w3.org/2000/svg">
<g clip-path="url(#clip0_83_1770)">
<rect width="60" height="60" rx="15" fill="#DAEEE1"/>
<circle cx="10.7071" cy="33.403" r="7.24307" fill="#0F8A55"/>
<path d="M19.2099 39.7013C14.5612 46.2094 8.30429 44.2828 5.13778 42.132C4.68241 41.8227 4.08593 41.7543 3.63888 42.0755C1.47626 43.6293 0.371493 46.1389 0.036727 47.4249C0.0108931 47.5241 0 47.626 0 47.7285V63.872C0 64.6203 0.606643 65.227 1.35497 65.227H21.0041C21.7524 65.227 22.3591 64.6203 22.3591 63.872V45.7947C22.3591 45.5181 22.4434 45.2514 22.5948 45.0198C24.3333 42.3629 27.3977 36.0466 27.3977 29.3091C27.3977 23.3031 24.0496 23.339 22.018 24.3245C21.4466 24.6017 21.306 25.3034 21.5122 25.9041C22.4483 28.6309 23.1351 34.206 19.2099 39.7013Z" fill="#0F8A55"/>
<circle cx="7.24307" cy="7.24307" r="7.24307" transform="matrix(-1 0 0 1 56.9999 26.1599)" fill="#0F8A55"/>
<path d="M41.3457 39.5546C45.9944 46.0627 52.2513 44.1361 55.4178 41.9853C55.8732 41.676 56.4697 41.6076 56.9167 41.9288C59.0793 43.4826 60.1841 45.9922 60.5189 47.2782C60.5447 47.3774 60.5556 47.4793 60.5556 47.5818V63.7253C60.5556 64.4736 59.949 65.0803 59.2006 65.0803H39.5515C38.8032 65.0803 38.1965 64.4736 38.1965 63.7253V45.648C38.1965 45.3714 38.1122 45.1047 37.9608 44.8732C36.2223 42.2162 33.1579 35.8999 33.1579 29.1624C33.1579 23.1564 36.506 23.1923 38.5376 24.1778C39.109 24.455 39.2496 25.1568 39.0434 25.7574C38.1073 28.4842 37.4205 34.0594 41.3457 39.5546Z" fill="#0F8A55"/>
<rect x="17.7657" y="10.7479" width="4.60547" height="9.21917" rx="2.30273" transform="rotate(-20.2442 17.7657 10.7479)" fill="#FF5A3D"/>
<rect x="28.1113" y="7.89471" width="4.60547" height="9.21917" rx="2.30273" transform="rotate(0.522652 28.1113 7.89471)" fill="#FF5A3D"/>
<rect x="39.0078" y="9.26511" width="4.60547" height="9.21917" rx="2.30273" transform="rotate(24.5199 39.0078 9.26511)" fill="#FF5A3D"/>
</g>
<defs>
<clipPath id="clip0_83_1770">
<rect width="60" height="60" rx="15" fill="white"/>
</clipPath>
</defs>
</svg>
