<svg width="60" height="60" viewBox="0 0 60 60" fill="none" xmlns="http://www.w3.org/2000/svg">
<g clip-path="url(#clip0_83_1753)">
<rect width="60" height="60" rx="15" fill="#DAEEE1"/>
<path d="M37.4181 22.3609C39.6687 22.3609 41.4932 20.5363 41.4932 18.2857C41.4932 16.035 39.6687 14.2105 37.4181 14.2105C35.1674 14.2105 33.3429 16.035 33.3429 18.2857C33.3429 20.5363 35.1674 22.3609 37.4181 22.3609Z" fill="#FF5A36"/>
<mask id="mask0_83_1753" style="mask-type:luminance" maskUnits="userSpaceOnUse" x="-1" y="16" width="58" height="44">
<path d="M56.8421 16.9989H-0.732422V60H56.8421V16.9989Z" fill="white"/>
</mask>
<g mask="url(#mask0_83_1753)">
<path d="M13.7041 21.4239C14.7107 21.4241 15.5264 22.2405 15.5264 23.2471V32.0264H50.502C52.4299 32.0265 53.9931 33.5897 53.9932 35.5176C53.9932 37.4456 52.4299 39.0087 50.502 39.0088H40.7725L43.2725 63.2842H39.7637C39.1097 63.284 38.5606 62.7893 38.4932 62.1377L36.1104 39.0088H-27.5693L-29.9521 62.1377C-30.0197 62.7893 -30.5685 63.2841 -31.2227 63.2842H-34.7314L-32.2314 39.0088H-41.9629C-43.8909 39.0088 -45.4541 37.4457 -45.4541 35.5176C-45.454 33.5897 -43.8909 32.0264 -41.9629 32.0264H11.8809V23.2471C11.8809 22.2403 12.6973 21.4239 13.7041 21.4239Z" fill="#0F8A55"/>
</g>
</g>
<defs>
<clipPath id="clip0_83_1753">
<rect width="60" height="60" rx="15" fill="white"/>
</clipPath>
</defs>
</svg>
