<svg width="60" height="60" viewBox="0 0 60 60" fill="none" xmlns="http://www.w3.org/2000/svg">
<g clip-path="url(#clip0_83_1809)">
<rect width="60" height="60" rx="15" fill="#DAEEE1"/>
<rect width="60" height="60" rx="14.2105" fill="#DAEEE1"/>
<path d="M47.0499 20.9008C48.168 20.9008 48.934 21.8083 48.9885 22.8393V30.4773C49.769 30.804 50.4333 31.2287 51.1521 31.697V17.826C51.2719 15.4373 49.435 13.3681 47.0862 13.3572L42.3379 13.3354L42.3125 10.9867C42.2399 10.0356 41.4267 9.38214 40.4974 9.48741C39.5027 9.38577 38.6605 10.1082 38.6605 11.1065L38.6533 13.3463H22.1867L22.1685 10.9831C22.0959 10.0029 21.1847 9.37125 20.2336 9.48741C19.2353 9.39303 18.3786 10.1045 18.375 11.1029V13.3427L13.7973 13.35C11.5538 13.3572 9.48821 15.2377 9.48821 17.5864L9.47369 43.1503C9.47369 44.439 10.1598 45.6334 11.0637 46.4465C11.9676 47.2597 13.0531 47.5392 14.2547 47.5392L25.0727 47.5319H32.246C31.7305 46.3231 31.3638 45.1288 31.2077 43.8582H13.8953C12.7191 43.8691 11.7208 42.9579 11.7208 41.7599L11.7281 22.7921C11.7281 21.8265 12.6138 20.9117 13.5976 20.9117L47.0536 20.9044L47.0499 20.9008ZM14.5669 27.6965L16.6869 29.8383C16.9156 30.0707 17.4638 30.1106 17.7106 29.8637L21.8963 25.6527C22.2738 25.2752 22.0415 24.6108 21.6567 24.3858C21.2138 24.1317 20.7963 24.3023 20.4333 24.6689L17.2097 27.9361L15.7394 26.4877C15.4163 26.1682 14.9045 26.2771 14.6286 26.5784C14.3781 26.847 14.251 27.3734 14.5705 27.6965H14.5669ZM29.1966 30.1324C29.6467 30.0271 30.0424 29.6568 30.0424 29.1885V25.2607C30.0424 24.6798 29.5705 24.2623 29.0115 24.2587L25.2542 24.2515C24.7133 24.2515 24.1942 24.6326 24.1905 25.2171L24.1724 29.2285C24.2849 29.7911 24.6988 30.1396 25.2578 30.136H29.1966V30.1324ZM37.5497 30.1215C38.0398 30.1215 38.4681 29.6968 38.4681 29.2285V25.2062C38.4681 24.7706 38.0434 24.2841 37.6041 24.2805L33.7815 24.2442C33.1826 24.2369 32.6162 24.6181 32.6162 25.257L32.6235 29.1885C32.6235 29.6968 33.0555 30.1251 33.5601 30.1251H37.5497V30.1215ZM46.607 29.675C46.745 29.4644 46.7849 29.2793 46.7849 29.0651L46.7777 25.2643C46.7777 24.6399 46.284 24.2551 45.6959 24.2515H42.0548C41.4631 24.2478 40.9149 24.6145 40.9185 25.257L40.9258 29.3265C40.9258 29.4318 41.002 29.5407 41.0456 29.5879C41.1037 29.6496 41.2416 29.6423 41.3469 29.6205C43.1003 29.2648 44.8391 29.2684 46.5998 29.6677L46.607 29.675ZM44.3708 53.7614L46.3675 53.3221C47.6852 53.0317 49.0429 53.2677 50.1247 53.9647L52.7348 57.1193L54.4919 59.2793C55.1707 60.1142 56.2126 60.2304 57.033 59.5733L58.4451 58.4407C58.8735 58.0958 59.1966 57.6384 59.2583 57.0794C59.32 56.5203 59.0732 56.1537 58.7283 55.7761L53.9255 50.5123C53.5516 49.5358 53.5335 48.4903 53.8457 47.4993C53.9836 47.06 54.1978 46.6788 54.3757 46.2614L54.8803 45.0816C55.2832 44.1377 55.4248 43.0958 55.4684 42.0322C55.6172 38.2132 53.7404 34.652 50.6729 32.4811C45.7176 28.978 38.9364 29.7766 34.9722 34.3942C33.4911 36.1186 32.4964 38.2459 32.1697 40.5547C31.578 44.7185 33.2661 48.9296 36.5586 51.5252C38.784 53.2822 41.6083 54.0736 44.3854 53.7577L44.3708 53.7614ZM21.3808 37.9301L21.3917 33.9659C21.3917 33.4359 20.9633 32.9821 20.4188 32.9857L16.4255 32.993C15.8955 32.993 15.5289 33.4794 15.4672 33.9731V37.7885C15.4672 38.2531 15.7939 38.8449 16.313 38.8485L20.4224 38.8739C20.9234 38.8739 21.3808 38.4673 21.3808 37.9373V37.9301ZM29.2111 38.8703C29.7193 38.7469 30.0497 38.3439 30.0497 37.8357V33.9695C30.0461 33.3959 29.5596 32.9821 29.0078 32.9821H25.1961C24.6407 32.9821 24.2486 33.3814 24.176 33.9259V37.9555C24.2486 38.4274 24.5826 38.863 25.0799 38.8667L29.2111 38.8775V38.8703Z" fill="#E6F1E9"/>
<path d="M47.0499 20.9011L13.594 20.9084C12.6138 20.9084 11.7281 21.8232 11.7244 22.7888L11.7172 41.7566C11.7172 42.9582 12.7155 43.8658 13.8917 43.8513H31.2077C31.3638 45.1218 31.7268 46.3162 32.246 47.5287H25.0727L14.2547 47.5323C13.0531 47.5323 11.9749 47.26 11.0637 46.4396C10.1525 45.6192 9.47369 44.443 9.47369 43.1506L9.48821 17.5868C9.48821 15.238 11.5538 13.3576 13.8082 13.3539L18.3822 13.3467V11.1068C18.3858 10.1085 19.2426 9.39338 20.2409 9.4914C21.1884 9.37523 22.0995 10.0069 22.1758 10.987L22.1939 13.3539H38.6605L38.6678 11.1141C38.6678 10.1158 39.51 9.39338 40.5047 9.49503C41.4304 9.39338 42.2472 10.0432 42.3198 10.9943L42.3452 13.343L47.0935 13.3648C49.4422 13.3757 51.2791 15.4449 51.1557 17.8336V31.7046C50.4369 31.2327 49.7762 30.808 48.9957 30.4849V22.8469C48.9376 21.8159 48.1717 20.9084 47.0536 20.9084L47.0499 20.9011Z" fill="#148B52"/>
<path d="M55.025 45.2501C54.3528 45.4321 53.8205 45.8033 53.2743 46.234L48.9114 49.6795L46.2993 52.0255L45.0982 53.2195C44.9897 53.328 44.9197 53.4716 44.8952 53.6187C42.2165 53.9233 39.4958 53.16 37.3459 51.4652C34.17 48.9617 32.5418 44.8999 33.1126 40.8837C33.4312 38.6567 34.3871 36.6048 35.8157 34.9416C39.6394 30.4877 46.1802 29.7173 50.9598 33.0963C53.9221 35.1902 55.7323 38.6252 55.5853 42.3088C55.5433 43.3347 55.4067 44.3397 55.018 45.2501H55.025Z" fill="#FF5A3D"/>
<path d="M54.1077 50.4883L58.7402 55.5655C59.0728 55.9297 59.3109 56.2903 59.2514 56.8225C59.1919 57.3548 58.8803 57.803 58.4671 58.1356L57.105 59.2281C56.3137 59.8619 55.3087 59.7498 54.6539 58.9445L52.9592 56.8611L50.4416 53.8183C49.6258 52.4071 50.2875 50.5443 51.8037 49.9631C52.6511 49.6374 53.5124 49.8405 54.1042 50.4918L54.1077 50.4883Z" fill="#E9B38D"/>
<path d="M21.3808 37.9301C21.3808 38.4601 20.9234 38.8703 20.4225 38.8667L16.3131 38.8412C15.7939 38.8412 15.4672 38.2459 15.4672 37.7812V33.9659C15.5289 33.4722 15.8956 32.9857 16.4256 32.9857L20.4188 32.9785C20.9634 32.9785 21.3917 33.4286 21.3917 33.9586L21.3808 37.9228V37.9301Z" fill="#148B52"/>
<path d="M29.1965 30.1324H25.2577C24.6987 30.1396 24.2848 29.7911 24.1723 29.2285L24.1905 25.2171C24.1905 24.6326 24.7132 24.2478 25.2541 24.2514L29.0114 24.2587C29.5668 24.2587 30.0423 24.6798 30.0423 25.2606V29.1885C30.0423 29.6568 29.6466 30.0271 29.1965 30.1324Z" fill="#148B52"/>
<path d="M37.5497 30.1215H33.5601C33.0555 30.1215 32.6235 29.6968 32.6235 29.1885L32.6163 25.257C32.6163 24.6181 33.1826 24.2406 33.7816 24.2442L37.6042 24.2805C38.0434 24.2841 38.4718 24.7706 38.4718 25.2062V29.2285C38.4718 29.6968 38.0398 30.1215 37.5497 30.1215Z" fill="#148B52"/>
<path d="M29.211 38.8703L25.0799 38.8594C24.5825 38.8594 24.2485 38.4201 24.1723 37.9482V33.9187C24.2449 33.3778 24.6406 32.9785 25.196 32.9785H29.0077C29.5595 32.9785 30.046 33.3887 30.046 33.9659V37.832C30.0496 38.3403 29.7193 38.7432 29.211 38.8667V38.8703Z" fill="#148B52"/>
<path d="M46.6071 29.675C44.8464 29.2756 43.1039 29.272 41.3541 29.6278C41.2489 29.6496 41.1109 29.6568 41.0528 29.5951C41.0056 29.5479 40.933 29.439 40.933 29.3337L40.9258 25.2643C40.9258 24.6217 41.4703 24.2551 42.062 24.2551H45.7031C46.2912 24.2587 46.7849 24.6435 46.7849 25.2715L46.7922 29.0724C46.7922 29.2865 46.7523 29.4717 46.6143 29.6822L46.6071 29.675Z" fill="#148B52"/>
<path d="M55.025 45.2501L54.5383 46.3881C54.3668 46.7907 54.1637 47.1549 54.0271 47.5821C53.726 48.538 53.74 49.5464 54.1041 50.4883C53.5124 49.8405 52.651 49.6375 51.8036 49.9596C50.2875 50.5408 49.6257 52.4037 50.4416 53.8148C49.3981 53.1425 48.0885 52.9149 46.8175 53.195L44.8917 53.6187C44.9162 53.4716 44.9862 53.3281 45.0948 53.2195L46.2958 52.0255L48.9079 49.6795L53.2708 46.234C53.817 45.8033 54.3493 45.4321 55.0215 45.2501H55.025Z" fill="#3E4246"/>
<path d="M14.5669 27.6965C14.2511 27.3771 14.3781 26.8471 14.625 26.5784C14.9045 26.2807 15.4127 26.1718 15.7358 26.4877L17.2061 27.9361L20.4297 24.6689C20.7927 24.3023 21.2102 24.1317 21.6531 24.3858C22.0415 24.6108 22.2702 25.2752 21.8927 25.6527L17.707 29.8638C17.4602 30.1106 16.9156 30.0707 16.6833 29.8383L14.5633 27.6965H14.5669Z" fill="#FF5A3D"/>
<path d="M40.3086 47.3323C42.3516 47.3323 44.0078 45.6761 44.0078 43.6331C44.0078 41.5901 42.3516 39.9339 40.3086 39.9339C38.2656 39.9339 36.6094 41.5901 36.6094 43.6331C36.6094 45.6761 38.2656 47.3323 40.3086 47.3323Z" fill="#E6F1E9"/>
</g>
<defs>
<clipPath id="clip0_83_1809">
<rect width="60" height="60" rx="15" fill="white"/>
</clipPath>
</defs>
</svg>
