<?xml version="1.0" encoding="UTF-8"?>
<svg id="Ebene_1" data-name="Ebene 1" xmlns="http://www.w3.org/2000/svg" viewBox="0 0 263.15 42.82">
  <defs>
    <style>
      .cls-1 {
        fill: #ff5a36;
      }

      .cls-2 {
        fill: #182420;
      }

      .cls-3 {
        fill: #0f8a55;
      }
    </style>
  </defs>
  <g>
    <path class="cls-2" d="M.5,42.29V9.76h6.83v7.84h.34c.35-1.89.88-3.47,1.59-4.74.71-1.27,1.61-2.21,2.72-2.84,1.11-.62,2.45-.94,4.02-.94,1.99,0,3.68.51,5.08,1.52s2.45,2.5,3.18,4.48c.72,1.97,1.08,4.4,1.08,7.29,0,3.11-.41,5.66-1.23,7.65-.82,1.99-1.93,3.46-3.34,4.4-1.41.95-3.02,1.42-4.81,1.42-1.44,0-2.72-.31-3.83-.91-1.11-.61-2.02-1.55-2.74-2.82-.72-1.27-1.23-2.86-1.52-4.79h-.43c.16.93.31,1.9.43,2.91s.23,2.01.31,2.98c.08.98.12,1.92.12,2.82v6.26H.5ZM13.02,29.44c1.03,0,1.87-.32,2.53-.96.66-.64,1.14-1.48,1.44-2.53.3-1.04.46-2.14.46-3.3,0-1.28-.17-2.45-.51-3.49-.34-1.04-.83-1.88-1.49-2.5-.66-.62-1.47-.94-2.43-.94-.61,0-1.2.14-1.78.41-.58.27-1.09.69-1.54,1.25-.45.56-.81,1.27-1.08,2.14-.27.87-.41,1.91-.41,3.13v.29c0,.96.1,1.8.29,2.5.19.71.45,1.32.77,1.83.32.51.69.93,1.11,1.25.42.32.85.55,1.3.7.45.14.9.22,1.35.22Z"/>
    <path class="cls-2" d="M28.22,35.17V1.48h7.8v33.69h-7.8Z"/>
    <path class="cls-2" d="M46.17,35.84c-1.28,0-2.5-.22-3.66-.67s-2.1-1.18-2.84-2.19c-.74-1.01-1.11-2.37-1.11-4.07,0-1.57.3-2.85.91-3.83.61-.98,1.43-1.76,2.45-2.36,1.03-.59,2.15-1.04,3.37-1.35,1.22-.31,2.42-.57,3.61-.79,1.67-.32,2.92-.58,3.75-.77.83-.19,1.4-.42,1.71-.67.3-.26.46-.61.46-1.06,0-.93-.34-1.64-1.03-2.12s-1.6-.72-2.72-.72c-.71,0-1.41.13-2.12.39-.71.26-1.28.71-1.73,1.37-.45.66-.66,1.6-.62,2.81l-6.93-.48c-.07-2.02.24-3.7.91-5.03.67-1.33,1.6-2.37,2.77-3.13s2.45-1.29,3.85-1.61c1.4-.32,2.78-.48,4.16-.48,2.53,0,4.62.47,6.26,1.42,1.64.95,2.85,2.31,3.63,4.09s1.18,3.94,1.18,6.47v14.1h-6.74v-7.27h-.29c-.13,1.44-.6,2.77-1.42,3.97-.82,1.2-1.89,2.17-3.22,2.89-1.33.72-2.86,1.08-4.6,1.08ZM49.4,30.16c.55,0,1.13-.1,1.76-.31s1.22-.55,1.78-1.03c.56-.48,1.02-1.15,1.37-2,.35-.85.53-1.9.53-3.15v-1.15l1.3-.14c-.26.42-.68.75-1.27,1.01-.59.26-1.26.46-2,.6-.74.14-1.48.29-2.24.43-.75.14-1.45.34-2.09.58-.64.24-1.16.56-1.56.96s-.6.95-.6,1.66c0,.84.3,1.47.89,1.9.59.43,1.31.65,2.14.65Z"/>
    <path class="cls-2" d="M75.77,35.75c-2.98,0-5.21-.76-6.66-2.29-1.46-1.52-2.19-3.89-2.19-7.1v-10.54h-2.79v-4.91h.14c1.99-.26,3.4-.92,4.23-2s1.35-2.7,1.54-4.89v-.1h4.57v5.82h5.82v6.26h-5.82v9.62c0,1.22.3,2.09.89,2.6.59.51,1.32.77,2.19.77.45,0,.91-.06,1.4-.19s.93-.3,1.35-.53v6.78c-1,.29-1.88.47-2.65.55-.77.08-1.44.12-2.02.12Z"/>
    <path class="cls-2" d="M93.48,35.75c-2.98,0-5.21-.76-6.66-2.29-1.46-1.52-2.19-3.89-2.19-7.1v-10.54h-2.79v-4.91h.14c1.99-.26,3.4-.92,4.23-2s1.35-2.7,1.54-4.89v-.1h4.57v5.82h5.82v6.26h-5.82v9.62c0,1.22.3,2.09.89,2.6.59.51,1.32.77,2.19.77.45,0,.91-.06,1.4-.19s.93-.3,1.35-.53v6.78c-1,.29-1.88.47-2.65.55-.77.08-1.44.12-2.02.12Z"/>
    <path class="cls-2" d="M112.3,35.84c-2.41,0-4.42-.34-6.04-1.03-1.62-.69-2.93-1.64-3.92-2.84-1-1.2-1.71-2.58-2.14-4.11-.43-1.54-.65-3.16-.65-4.86,0-1.83.23-3.58.7-5.25.47-1.67,1.19-3.15,2.17-4.45.98-1.3,2.24-2.33,3.8-3.08,1.56-.75,3.42-1.13,5.61-1.13s4.05.38,5.61,1.13c1.56.75,2.8,1.8,3.73,3.15.93,1.35,1.53,2.9,1.8,4.67.27,1.77.23,3.67-.12,5.73l-18.43.29v-4.23l12.46-.24-1.01,2.45c.19-1.48.17-2.72-.07-3.73-.24-1.01-.68-1.78-1.32-2.31-.64-.53-1.52-.79-2.65-.79-1.19,0-2.13.31-2.84.91-.71.61-1.2,1.47-1.49,2.57-.29,1.11-.43,2.41-.43,3.92,0,2.6.43,4.49,1.3,5.68.87,1.19,2.2,1.78,3.99,1.78.77,0,1.41-.1,1.93-.29s.93-.47,1.25-.84c.32-.37.55-.82.67-1.35s.18-1.13.14-1.81l7.12.39c.1,1.06,0,2.15-.31,3.27-.31,1.12-.88,2.17-1.71,3.13-.84.96-2,1.75-3.49,2.36-1.49.61-3.38.91-5.66.91Z"/>
    <path class="cls-2" d="M126.16,35.17V9.76h6.59v10.35h.39c.19-2.5.61-4.56,1.25-6.18s1.56-2.83,2.74-3.63c1.19-.8,2.7-1.2,4.52-1.2,2.76,0,4.84.91,6.23,2.74,1.4,1.83,2.09,4.56,2.09,8.18v15.16h-7.8v-14.15c0-1.73-.26-3.03-.79-3.9-.53-.87-1.37-1.3-2.53-1.3-.96,0-1.81.34-2.55,1.01s-1.32,1.76-1.73,3.27c-.42,1.51-.63,3.53-.63,6.06v9h-7.8Z"/>
    <path class="cls-3" d="M163.36,35.75c-2.98,0-5.21-.76-6.66-2.29-1.46-1.52-2.19-3.89-2.19-7.1v-10.54h-2.79v-4.91h.14c1.99-.26,3.4-.92,4.23-2,.83-1.07,1.35-2.7,1.54-4.89v-.1h4.57v5.82h5.82v6.26h-5.82v9.62c0,1.22.3,2.09.89,2.6.59.51,1.32.77,2.19.77.45,0,.91-.06,1.4-.19s.93-.3,1.35-.53v6.78c-1,.29-1.88.47-2.65.55-.77.08-1.44.12-2.02.12Z"/>
    <path class="cls-3" d="M170.91,35.17V9.76h6.74v10.11h.39c.19-2.7.57-4.82,1.13-6.38.56-1.56,1.27-2.66,2.12-3.32.85-.66,1.81-.99,2.86-.99.58,0,1.18.08,1.81.24.63.16,1.24.42,1.85.77l-.39,8.66c-.71-.42-1.4-.73-2.07-.94-.67-.21-1.32-.31-1.93-.31-1.03,0-1.89.29-2.6.87-.71.58-1.24,1.43-1.61,2.55s-.55,2.49-.55,4.09v10.06h-7.75Z"/>
    <path class="cls-3" d="M201.66,35.84c-2.41,0-4.42-.34-6.04-1.03-1.62-.69-2.93-1.64-3.92-2.84-1-1.2-1.71-2.58-2.14-4.11-.43-1.54-.65-3.16-.65-4.86,0-1.83.23-3.58.7-5.25.47-1.67,1.19-3.15,2.17-4.45.98-1.3,2.24-2.33,3.8-3.08,1.56-.75,3.42-1.13,5.61-1.13s4.05.38,5.61,1.13c1.56.75,2.8,1.8,3.73,3.15.93,1.35,1.53,2.9,1.8,4.67.27,1.77.23,3.67-.12,5.73l-18.43.29v-4.23l12.46-.24-1.01,2.45c.19-1.48.17-2.72-.07-3.73-.24-1.01-.68-1.78-1.32-2.31-.64-.53-1.52-.79-2.65-.79-1.19,0-2.13.31-2.84.91-.71.61-1.2,1.47-1.49,2.57-.29,1.11-.43,2.41-.43,3.92,0,2.6.43,4.49,1.3,5.68.87,1.19,2.2,1.78,3.99,1.78.77,0,1.41-.1,1.93-.29s.93-.47,1.25-.84c.32-.37.55-.82.67-1.35s.18-1.13.14-1.81l7.12.39c.1,1.06,0,2.15-.31,3.27-.31,1.12-.88,2.17-1.71,3.13-.84.96-2,1.75-3.49,2.36-1.49.61-3.38.91-5.66.91Z"/>
    <path class="cls-3" d="M217.74,35.17v-15.54h-3.51v-5.58l7.75.53v-.38c-1.96-.22-3.43-.69-4.43-1.4-1-.71-1.66-1.51-2-2.41-.34-.9-.51-1.72-.51-2.45,0-1.44.39-2.7,1.18-3.78.79-1.07,1.88-1.9,3.27-2.48,1.4-.58,2.98-.87,4.74-.87,1.44,0,2.74.19,3.87.58,1.14.38,2.17.95,3.1,1.68l-.63,7.12c-.87-.61-1.7-1.07-2.5-1.37-.8-.3-1.62-.46-2.45-.46-.96,0-1.76.21-2.38.63-.62.42-.94,1.07-.94,1.97,0,.48.13.93.38,1.35.26.42.67.75,1.23.99.56.24,1.32.36,2.29.36h4.81v5.97h-5.58v15.54h-7.7Z"/>
    <path class="cls-3" d="M235.83,35.17v-15.54h-3.51v-5.58l7.75.53v-.38c-1.96-.22-3.43-.69-4.43-1.4-1-.71-1.66-1.51-2-2.41-.34-.9-.51-1.72-.51-2.45,0-1.44.39-2.7,1.18-3.78.79-1.07,1.88-1.9,3.27-2.48,1.4-.58,2.98-.87,4.74-.87,1.44,0,2.74.19,3.87.58,1.14.38,2.17.95,3.1,1.68l-.63,7.12c-.87-.61-1.7-1.07-2.5-1.37-.8-.3-1.62-.46-2.45-.46-.96,0-1.76.21-2.38.63-.62.42-.94,1.07-.94,1.97,0,.48.13.93.38,1.35.26.42.67.75,1.23.99.56.24,1.32.36,2.29.36h4.81v5.97h-5.58v15.54h-7.7Z"/>
  </g>
  <circle class="cls-1" cx="256.67" cy="29.19" r="5.98"/>
</svg>