<?xml version="1.0" encoding="UTF-8"?>
<svg id="Ebene_1" xmlns="http://www.w3.org/2000/svg" version="1.1" viewBox="0 0 221 38.3">
  <!-- Generator: Adobe Illustrator 30.5.1, SVG Export Plug-In . SVG Version: 2.1.4 Build 3)  -->
  <defs>
    <style>
      .st0 {
        fill: #fff;
      }

      .st1 {
        fill: #3f7cf4;
      }
    </style>
  </defs>
  <circle class="st1" cx="7.9" cy="18.8" r="5.3"/>
  <path class="st1" d="M14.2,23.5c-3.4,4.8-8,3.4-10.4,1.8-.3-.2-.8-.3-1.1,0-1.6,1.1-2.4,3-2.7,3.9,0,0,0,.1,0,.2v7.3c0,.6.4,1,1,1h14.5c.6,0,1-.4,1-1v-8.7c0-.2,0-.4.2-.6,1.3-2,3.5-6.6,3.5-11.6s-2.5-4.4-4-3.7c-.4.2-.5.7-.4,1.2.7,2,1.2,6.1-1.7,10.2Z"/>
  <circle class="st1" cx="36.7" cy="18.8" r="5.3"/>
  <path class="st1" d="M30.4,23.5c3.4,4.8,8,3.4,10.4,1.8.3-.2.8-.3,1.1,0,1.6,1.1,2.4,3,2.7,3.9,0,0,0,.1,0,.2v7.3c0,.6-.4,1-1,1h-14.5c-.6,0-1-.4-1-1v-8.7c0-.2,0-.4-.2-.6-1.3-2-3.5-6.6-3.5-11.6s2.5-4.4,4-3.7c.4.2.5.7.4,1.2-.7,2-1.2,6.1,1.7,10.2Z"/>
  <rect class="st1" x="14.2" y="1.3" width="3.4" height="6.8" rx="1.7" ry="1.7" transform="translate(-.6 5.8) rotate(-20.2)"/>
  <path class="st1" d="M22.4,0h0c.9,0,1.7.8,1.7,1.7v3.4c0,.9-.8,1.7-1.7,1.7h0c-.9,0-1.7-.8-1.7-1.7V1.7C20.7.7,21.5,0,22.4,0Z"/>
  <path class="st1" d="M30.3,1.7h0c.9.4,1.2,1.4.8,2.3l-1.4,3.1c-.4.9-1.4,1.2-2.3.8h0c-.9-.4-1.2-1.4-.8-2.3l1.4-3.1c.4-.9,1.4-1.2,2.3-.8Z"/>
  <path class="st1" d="M58,38.2c-.6,0-1.1-.2-1.4-.5-.3-.4-.5-.8-.5-1.5v-17.5c0-.6.2-1.1.5-1.4.3-.3.8-.5,1.4-.5h7.2c2.3,0,4.1.6,5.4,1.7,1.3,1.2,1.9,2.8,1.9,4.9s-.6,3.7-1.9,4.9c-1.3,1.2-3.1,1.7-5.4,1.7h-5.3v6.2c0,.6-.2,1.1-.5,1.5-.3.3-.8.5-1.4.5ZM60,27h4.7c1.4,0,2.4-.3,3.1-.9.7-.6,1.1-1.5,1.1-2.7s-.3-2.1-1.1-2.7c-.7-.6-1.7-.9-3.1-.9h-4.7v7.2ZM80.3,38.3c-1.7,0-2.9-.5-3.8-1.4-.8-1-1.3-2.4-1.3-4.2v-14.2c0-.6.2-1.1.5-1.4s.8-.5,1.4-.5,1.1.2,1.4.5c.3.3.5.8.5,1.4v14c0,.9.2,1.6.6,2,.4.4,1,.7,1.7.7h.4c.1,0,.3,0,.4,0,.3,0,.5,0,.6.2,0,.2.2.6.2,1.1s0,.9-.3,1.2c-.2.3-.5.5-1,.5-.2,0-.4,0-.6,0s-.4,0-.7,0ZM89.7,38.3c-1.1,0-2-.2-2.8-.6-.8-.4-1.5-1-1.9-1.7-.5-.7-.7-1.5-.7-2.4s.3-1.9.8-2.6c.6-.6,1.5-1.1,2.7-1.4,1.3-.3,2.9-.4,5.1-.4h1.5v2.2h-1.5c-1.2,0-2.2,0-3,.2-.7.1-1.3.3-1.6.6-.3.3-.5.7-.5,1.2s.2,1.2.7,1.6c.5.4,1.1.6,1.9.6s1.2-.2,1.7-.5c.5-.3.9-.8,1.2-1.3.3-.5.5-1.2.5-1.9v-3.4c0-1-.2-1.7-.7-2.2s-1.2-.7-2.2-.7-1.2,0-1.9.2c-.7.1-1.4.4-2.1.7-.4.2-.7.2-1,.1-.3,0-.5-.2-.7-.5-.2-.3-.2-.5-.2-.8s0-.6.2-.9c.2-.3.4-.5.8-.7.9-.4,1.8-.6,2.6-.8.9-.2,1.6-.2,2.3-.2,1.4,0,2.6.2,3.5.7.9.4,1.6,1.1,2.1,2,.5.9.7,2,.7,3.4v7.2c0,.6-.2,1.1-.5,1.4-.3.3-.7.5-1.3.5s-1-.2-1.3-.5c-.3-.3-.4-.8-.4-1.4v-1.4h.2c-.1.7-.4,1.3-.8,1.8-.4.5-.9.9-1.5,1.2-.6.3-1.3.4-2.1.4ZM108,38.3c-1.3,0-2.4-.2-3.3-.7-.9-.4-1.5-1.1-1.9-1.9-.4-.9-.6-1.9-.6-3.2v-6.4h-1.6c-.5,0-.8-.1-1.1-.4-.3-.3-.4-.6-.4-1.1s.1-.8.4-1c.3-.2.6-.4,1.1-.4h1.6v-2.7c0-.6.2-1.1.5-1.4.3-.3.8-.5,1.4-.5s1.1.2,1.4.5.5.8.5,1.4v2.7h3.2c.5,0,.9.1,1.1.4.3.2.4.6.4,1s-.1.8-.4,1.1c-.3.2-.6.4-1.1.4h-3.2v6.2c0,1,.2,1.7.6,2.2.4.5,1.1.7,2,.7s.6,0,.9,0c.3,0,.5,0,.7-.1.2,0,.4,0,.6.2.2.2.2.5.2,1s0,.8-.2,1.1c-.1.3-.3.5-.7.6-.3,0-.6.1-1,.2-.4,0-.8.1-1.1.1ZM118.7,38.3c-1.3,0-2.4-.2-3.3-.7-.9-.4-1.5-1.1-1.9-1.9-.4-.9-.6-1.9-.6-3.2v-6.4h-1.6c-.5,0-.8-.1-1.1-.4-.3-.3-.4-.6-.4-1.1s.1-.8.4-1,.6-.4,1.1-.4h1.6v-2.7c0-.6.2-1.1.5-1.4.3-.3.8-.5,1.4-.5s1.1.2,1.4.5.5.8.5,1.4v2.7h3.2c.5,0,.8.1,1.1.4s.4.6.4,1-.1.8-.4,1.1c-.3.2-.6.4-1.1.4h-3.2v6.2c0,1,.2,1.7.6,2.2.4.5,1.1.7,2,.7s.6,0,.9,0c.3,0,.5,0,.7-.1.2,0,.4,0,.6.2.2.2.2.5.2,1s0,.8-.2,1.1c-.1.3-.3.5-.7.6-.3,0-.6.1-1,.2-.4,0-.8.1-1.1.1ZM130.6,38.3c-1.7,0-3.1-.3-4.3-.9-1.2-.6-2.1-1.5-2.8-2.6-.6-1.1-1-2.5-1-4s.3-2.9.9-4c.6-1.1,1.5-2,2.6-2.7,1.1-.7,2.4-1,3.8-1s2,.2,2.8.5c.8.3,1.6.8,2.1,1.5.6.6,1.1,1.4,1.4,2.3.3.9.5,1.9.5,3.1s-.1.6-.4.8c-.2.2-.6.3-1.1.3h-9.6v-2.2h8.4l-.5.4c0-.9-.1-1.7-.4-2.3-.3-.6-.6-1.1-1.2-1.4-.5-.3-1.1-.5-1.9-.5s-1.6.2-2.2.6c-.6.4-1,.9-1.3,1.6-.3.7-.5,1.5-.5,2.5v.2c0,1.6.4,2.9,1.1,3.7.8.8,1.9,1.2,3.4,1.2s1.1,0,1.7-.2c.7-.1,1.3-.4,1.9-.7.4-.2.8-.3,1.1-.3.3,0,.6.1.8.3.2.2.3.5.4.8,0,.3,0,.6-.2.9-.1.3-.4.6-.8.8-.7.4-1.5.8-2.4,1-.9.2-1.7.3-2.5.3ZM141.5,38.2c-.6,0-1.1-.2-1.4-.5-.3-.3-.5-.8-.5-1.4v-11.3c0-.6.2-1.1.5-1.4.3-.3.8-.5,1.3-.5s1,.2,1.4.5c.3.3.5.8.5,1.4v2l-.3-.8c.4-1.1,1.1-1.9,2-2.4.9-.6,2-.8,3.2-.8s2.1.2,2.9.7c.8.4,1.3,1.1,1.7,2,.4.9.6,2,.6,3.4v7.3c0,.6-.2,1.1-.5,1.4-.3.3-.8.5-1.4.5s-1.1-.2-1.4-.5c-.3-.3-.5-.8-.5-1.4v-7.1c0-1.1-.2-2-.7-2.5-.4-.5-1.1-.8-2-.8s-2,.4-2.6,1.1c-.6.7-1,1.6-1,2.7v6.6c0,1.3-.6,1.9-1.9,1.9Z"/>
  <path class="st0" d="M164.5,38.2c-.6,0-1.1-.2-1.4-.5-.3-.4-.5-.8-.5-1.5v-16.2h-5.8c-.5,0-.9-.1-1.2-.4-.3-.3-.4-.7-.4-1.2s.1-.9.4-1.2c.3-.3.7-.4,1.2-.4h15.5c.5,0,.9.1,1.2.4.3.3.4.6.4,1.2s-.1.9-.4,1.2c-.3.3-.7.4-1.2.4h-5.9v16.2c0,.6-.2,1.1-.5,1.5-.3.3-.8.5-1.4.5ZM175.4,38.2c-.6,0-1.1-.2-1.4-.5-.3-.3-.5-.8-.5-1.4v-11.3c0-.6.2-1.1.5-1.4.3-.3.8-.5,1.3-.5s1,.2,1.4.5c.3.3.5.8.5,1.4v1.9h-.3c.3-1.2.8-2.1,1.7-2.7.8-.6,1.9-1,3.3-1.1.4,0,.8,0,1,.3.3.2.4.6.4,1.1,0,.5,0,.9-.4,1.2-.3.3-.7.5-1.2.5h-.7c-1.2.2-2.1.6-2.8,1.2-.6.6-.9,1.5-.9,2.6v6.2c0,.6-.2,1.1-.5,1.4-.3.3-.8.5-1.4.5ZM192.2,38.3c-1.7,0-3.1-.3-4.3-.9-1.2-.6-2.1-1.5-2.8-2.6-.6-1.1-1-2.5-1-4s.3-2.9.9-4c.6-1.1,1.5-2,2.6-2.7,1.1-.7,2.4-1,3.8-1s2,.2,2.8.5c.8.3,1.6.8,2.1,1.5.6.6,1,1.4,1.3,2.3.3.9.5,1.9.5,3.1s-.1.6-.4.8c-.2.2-.6.3-1,.3h-9.6v-2.2h8.4l-.5.4c0-.9-.1-1.7-.4-2.3-.3-.6-.6-1.1-1.2-1.4-.5-.3-1.1-.5-1.9-.5s-1.6.2-2.2.6c-.6.4-1,.9-1.4,1.6-.3.7-.4,1.5-.4,2.5v.2c0,1.6.4,2.9,1.1,3.7.8.8,1.9,1.2,3.4,1.2s1.1,0,1.7-.2c.7-.1,1.3-.4,1.9-.7.4-.2.8-.3,1.1-.3.3,0,.6.1.8.3.2.2.3.5.4.8,0,.3,0,.6-.2.9-.1.3-.4.6-.8.8-.7.4-1.5.8-2.4,1-.9.2-1.7.3-2.5.3ZM204,38.2c-.6,0-1.1-.2-1.4-.5-.3-.3-.5-.8-.5-1.4v-10.2h-1.4c-.5,0-.9-.1-1.1-.4-.3-.3-.4-.6-.4-1.1s.1-.8.4-1c.3-.2.6-.4,1.1-.4h2.5l-1.1,1v-1c0-2.1.5-3.6,1.6-4.6,1-1,2.5-1.6,4.5-1.8h1c.4-.1.7,0,1,.1.2.2.4.4.5.7,0,.3,0,.5,0,.8,0,.3-.2.5-.4.8-.2.2-.4.3-.7.3h-.4c-1.1.1-2,.4-2.5.9-.5.5-.8,1.3-.8,2.3v1.1l-.5-.5h3c.5,0,.9.1,1.1.4s.4.6.4,1-.1.8-.4,1.1c-.3.2-.6.4-1.1.4h-2.6v10.2c0,1.3-.6,1.9-1.9,1.9ZM214.3,38.2c-.6,0-1.1-.2-1.4-.5-.3-.3-.5-.8-.5-1.4v-10.2h-1.4c-.5,0-.9-.1-1.1-.4-.3-.3-.4-.6-.4-1.1s.1-.8.4-1c.3-.2.6-.4,1.1-.4h2.5l-1.1,1v-1c0-2.1.5-3.6,1.6-4.6,1-1,2.5-1.6,4.5-1.8h1c.4-.1.7,0,1,.1.2.2.4.4.5.7,0,.3,0,.5,0,.8,0,.3-.2.5-.4.8-.2.2-.4.3-.7.3h-.4c-1.1.1-2,.4-2.5.9-.5.5-.8,1.3-.8,2.3v1.1l-.5-.5h3c.5,0,.9.1,1.1.4.3.2.4.6.4,1s-.1.8-.4,1.1c-.3.2-.6.4-1.1.4h-2.6v10.2c0,1.3-.6,1.9-1.9,1.9Z"/>
</svg>