<svg width="165" height="22" viewBox="0 0 165 22" fill="none" xmlns="http://www.w3.org/2000/svg">
<path d="M1.91994 21.63C1.29994 21.63 0.819942 21.46 0.479941 21.12C0.159942 20.76 -5.83827e-05 20.27 -5.83827e-05 19.65V2.19001C-5.83827e-05 1.55001 0.169942 1.07001 0.509942 0.750014C0.849942 0.410014 1.32994 0.240013 1.94994 0.240013H9.17994C11.4999 0.240013 13.2899 0.820014 14.5499 1.98001C15.8099 3.14001 16.4399 4.76001 16.4399 6.84001C16.4399 8.92001 15.8099 10.55 14.5499 11.73C13.2899 12.89 11.4999 13.47 9.17994 13.47H3.83994V19.65C3.83994 20.27 3.67994 20.76 3.35994 21.12C3.03994 21.46 2.55994 21.63 1.91994 21.63ZM3.83994 10.44H8.57994C9.93994 10.44 10.9699 10.14 11.6699 9.54001C12.3699 8.92001 12.7199 8.02001 12.7199 6.84001C12.7199 5.66001 12.3699 4.77001 11.6699 4.17001C10.9699 3.57001 9.93994 3.27001 8.57994 3.27001H3.83994V10.44ZM24.2203 21.69C22.5603 21.69 21.3103 21.22 20.4703 20.28C19.6303 19.32 19.2103 17.92 19.2103 16.08V1.89001C19.2103 1.27001 19.3703 0.800013 19.6903 0.480014C20.0103 0.160013 20.4703 1.28746e-05 21.0703 1.28746e-05C21.6703 1.28746e-05 22.1303 0.160013 22.4503 0.480014C22.7903 0.800013 22.9603 1.27001 22.9603 1.89001V15.9C22.9603 16.82 23.1503 17.5 23.5303 17.94C23.9303 18.38 24.4903 18.6 25.2103 18.6C25.3703 18.6 25.5203 18.6 25.6603 18.6C25.8003 18.58 25.9403 18.56 26.0803 18.54C26.3603 18.5 26.5503 18.58 26.6503 18.78C26.7503 18.96 26.8003 19.34 26.8003 19.92C26.8003 20.42 26.7003 20.81 26.5003 21.09C26.3003 21.37 25.9703 21.54 25.5103 21.6C25.3103 21.62 25.1003 21.64 24.8803 21.66C24.6603 21.68 24.4403 21.69 24.2203 21.69ZM33.6203 21.69C32.5603 21.69 31.6103 21.49 30.7703 21.09C29.9503 20.67 29.3003 20.11 28.8203 19.41C28.3603 18.71 28.1303 17.92 28.1303 17.04C28.1303 15.96 28.4103 15.11 28.9703 14.49C29.5303 13.85 30.4403 13.39 31.7003 13.11C32.9603 12.83 34.6503 12.69 36.7703 12.69H38.2703V14.85H36.8003C35.5603 14.85 34.5703 14.91 33.8303 15.03C33.0903 15.15 32.5603 15.36 32.2403 15.66C31.9403 15.94 31.7903 16.34 31.7903 16.86C31.7903 17.52 32.0203 18.06 32.4803 18.48C32.9403 18.9 33.5803 19.11 34.4003 19.11C35.0603 19.11 35.6403 18.96 36.1403 18.66C36.6603 18.34 37.0703 17.91 37.3703 17.37C37.6703 16.83 37.8203 16.21 37.8203 15.51V12.06C37.8203 11.06 37.6003 10.34 37.1603 9.90001C36.7203 9.46001 35.9803 9.24001 34.9403 9.24001C34.3603 9.24001 33.7303 9.31001 33.0503 9.45001C32.3903 9.59001 31.6903 9.83001 30.9503 10.17C30.5703 10.35 30.2303 10.4 29.9303 10.32C29.6503 10.24 29.4303 10.08 29.2703 9.84001C29.1103 9.58001 29.0303 9.30001 29.0303 9.00001C29.0303 8.70001 29.1103 8.41001 29.2703 8.13001C29.4303 7.83001 29.7003 7.61001 30.0803 7.47001C31.0003 7.09001 31.8803 6.82001 32.7203 6.66001C33.5803 6.50001 34.3603 6.42001 35.0603 6.42001C36.5003 6.42001 37.6803 6.64001 38.6003 7.08001C39.5403 7.52001 40.2403 8.19001 40.7003 9.09001C41.1603 9.97001 41.3903 11.11 41.3903 12.51V19.71C41.3903 20.33 41.2403 20.81 40.9403 21.15C40.6403 21.47 40.2103 21.63 39.6503 21.63C39.0903 21.63 38.6503 21.47 38.3303 21.15C38.0303 20.81 37.8803 20.33 37.8803 19.71V18.27H38.1203C37.9803 18.97 37.7003 19.58 37.2803 20.1C36.8803 20.6 36.3703 20.99 35.7503 21.27C35.1303 21.55 34.4203 21.69 33.6203 21.69ZM51.9166 21.69C50.6166 21.69 49.5266 21.47 48.6466 21.03C47.7866 20.59 47.1466 19.95 46.7266 19.11C46.3066 18.25 46.0966 17.19 46.0966 15.93V9.54001H44.5366C44.0566 9.54001 43.6866 9.42001 43.4266 9.18001C43.1666 8.92001 43.0366 8.57001 43.0366 8.13001C43.0366 7.67001 43.1666 7.32001 43.4266 7.08001C43.6866 6.84001 44.0566 6.72001 44.5366 6.72001H46.0966V3.99001C46.0966 3.37001 46.2566 2.90001 46.5766 2.58001C46.9166 2.26001 47.3866 2.10001 47.9866 2.10001C48.5866 2.10001 49.0466 2.26001 49.3666 2.58001C49.6866 2.90001 49.8466 3.37001 49.8466 3.99001V6.72001H53.0266C53.5066 6.72001 53.8766 6.84001 54.1366 7.08001C54.3966 7.32001 54.5266 7.67001 54.5266 8.13001C54.5266 8.57001 54.3966 8.92001 54.1366 9.18001C53.8766 9.42001 53.5066 9.54001 53.0266 9.54001H49.8466V15.72C49.8466 16.68 50.0566 17.4 50.4766 17.88C50.8966 18.36 51.5766 18.6 52.5166 18.6C52.8566 18.6 53.1566 18.57 53.4166 18.51C53.6766 18.45 53.9066 18.41 54.1066 18.39C54.3466 18.37 54.5466 18.45 54.7066 18.63C54.8666 18.79 54.9466 19.13 54.9466 19.65C54.9466 20.05 54.8766 20.41 54.7366 20.73C54.6166 21.03 54.3866 21.24 54.0466 21.36C53.7866 21.44 53.4466 21.51 53.0266 21.57C52.6066 21.65 52.2366 21.69 51.9166 21.69ZM62.5806 21.69C61.2806 21.69 60.1906 21.47 59.3106 21.03C58.4506 20.59 57.8106 19.95 57.3906 19.11C56.9706 18.25 56.7606 17.19 56.7606 15.93V9.54001H55.2006C54.7206 9.54001 54.3506 9.42001 54.0906 9.18001C53.8306 8.92001 53.7006 8.57001 53.7006 8.13001C53.7006 7.67001 53.8306 7.32001 54.0906 7.08001C54.3506 6.84001 54.7206 6.72001 55.2006 6.72001H56.7606V3.99001C56.7606 3.37001 56.9206 2.90001 57.2406 2.58001C57.5806 2.26001 58.0506 2.10001 58.6506 2.10001C59.2506 2.10001 59.7106 2.26001 60.0306 2.58001C60.3506 2.90001 60.5106 3.37001 60.5106 3.99001V6.72001H63.6906C64.1706 6.72001 64.5406 6.84001 64.8006 7.08001C65.0606 7.32001 65.1906 7.67001 65.1906 8.13001C65.1906 8.57001 65.0606 8.92001 64.8006 9.18001C64.5406 9.42001 64.1706 9.54001 63.6906 9.54001H60.5106V15.72C60.5106 16.68 60.7206 17.4 61.1406 17.88C61.5606 18.36 62.2406 18.6 63.1806 18.6C63.5206 18.6 63.8206 18.57 64.0806 18.51C64.3406 18.45 64.5706 18.41 64.7706 18.39C65.0106 18.37 65.2106 18.45 65.3706 18.63C65.5306 18.79 65.6106 19.13 65.6106 19.65C65.6106 20.05 65.5406 20.41 65.4006 20.73C65.2806 21.03 65.0506 21.24 64.7106 21.36C64.4506 21.44 64.1106 21.51 63.6906 21.57C63.2706 21.65 62.9006 21.69 62.5806 21.69ZM74.4578 21.69C72.7978 21.69 71.3678 21.38 70.1678 20.76C68.9678 20.14 68.0378 19.26 67.3778 18.12C66.7378 16.98 66.4178 15.63 66.4178 14.07C66.4178 12.55 66.7278 11.22 67.3478 10.08C67.9878 8.94001 68.8578 8.05001 69.9578 7.41001C71.0778 6.75001 72.3478 6.42001 73.7678 6.42001C74.8078 6.42001 75.7378 6.59001 76.5578 6.93001C77.3978 7.27001 78.1078 7.76001 78.6878 8.40001C79.2878 9.04001 79.7378 9.82001 80.0378 10.74C80.3578 11.64 80.5178 12.66 80.5178 13.8C80.5178 14.16 80.3878 14.44 80.1278 14.64C79.8878 14.82 79.5378 14.91 79.0778 14.91H69.4478V12.75H77.8778L77.3978 13.2C77.3978 12.28 77.2578 11.51 76.9778 10.89C76.7178 10.27 76.3278 9.80001 75.8078 9.48001C75.3078 9.14001 74.6778 8.97001 73.9178 8.97001C73.0778 8.97001 72.3578 9.17001 71.7578 9.57001C71.1778 9.95001 70.7278 10.5 70.4078 11.22C70.1078 11.92 69.9578 12.76 69.9578 13.74V13.95C69.9578 15.59 70.3378 16.82 71.0978 17.64C71.8778 18.44 73.0178 18.84 74.5178 18.84C75.0378 18.84 75.6178 18.78 76.2578 18.66C76.9178 18.52 77.5378 18.29 78.1178 17.97C78.5378 17.73 78.9078 17.63 79.2278 17.67C79.5478 17.69 79.7978 17.8 79.9778 18C80.1778 18.2 80.2978 18.45 80.3378 18.75C80.3778 19.03 80.3178 19.32 80.1578 19.62C80.0178 19.92 79.7678 20.18 79.4078 20.4C78.7078 20.84 77.8978 21.17 76.9778 21.39C76.0778 21.59 75.2378 21.69 74.4578 21.69ZM85.3476 21.63C84.7476 21.63 84.2876 21.47 83.9676 21.15C83.6476 20.81 83.4876 20.33 83.4876 19.71V8.37001C83.4876 7.75001 83.6476 7.28001 83.9676 6.96001C84.2876 6.64001 84.7376 6.48001 85.3176 6.48001C85.8976 6.48001 86.3476 6.64001 86.6676 6.96001C86.9876 7.28001 87.1476 7.75001 87.1476 8.37001V10.41L86.8176 9.66001C87.2576 8.60001 87.9376 7.80001 88.8576 7.26001C89.7976 6.70001 90.8576 6.42001 92.0376 6.42001C93.2176 6.42001 94.1876 6.64001 94.9476 7.08001C95.7076 7.52001 96.2776 8.19001 96.6576 9.09001C97.0376 9.97001 97.2276 11.09 97.2276 12.45V19.71C97.2276 20.33 97.0676 20.81 96.7476 21.15C96.4276 21.47 95.9676 21.63 95.3676 21.63C94.7676 21.63 94.2976 21.47 93.9576 21.15C93.6376 20.81 93.4776 20.33 93.4776 19.71V12.63C93.4776 11.49 93.2576 10.66 92.8176 10.14C92.3976 9.62001 91.7376 9.36001 90.8376 9.36001C89.7376 9.36001 88.8576 9.71001 88.1976 10.41C87.5576 11.09 87.2376 12 87.2376 13.14V19.71C87.2376 20.99 86.6076 21.63 85.3476 21.63Z" fill="#3F7CF4"/>
<path d="M108.416 21.63C107.796 21.63 107.316 21.46 106.976 21.12C106.656 20.76 106.496 20.27 106.496 19.65V3.45001H100.646C100.126 3.45001 99.7164 3.31001 99.4164 3.03001C99.1364 2.73001 98.9964 2.33001 98.9964 1.83001C98.9964 1.31001 99.1364 0.920014 99.4164 0.660013C99.7164 0.380013 100.126 0.240013 100.646 0.240013H116.186C116.706 0.240013 117.106 0.380013 117.386 0.660013C117.686 0.920014 117.836 1.31001 117.836 1.83001C117.836 2.33001 117.686 2.73001 117.386 3.03001C117.106 3.31001 116.706 3.45001 116.186 3.45001H110.336V19.65C110.336 20.27 110.176 20.76 109.856 21.12C109.536 21.46 109.056 21.63 108.416 21.63ZM119.245 21.63C118.625 21.63 118.145 21.47 117.805 21.15C117.485 20.81 117.325 20.33 117.325 19.71V8.37001C117.325 7.75001 117.485 7.28001 117.805 6.96001C118.125 6.64001 118.575 6.48001 119.155 6.48001C119.735 6.48001 120.185 6.64001 120.505 6.96001C120.825 7.28001 120.985 7.75001 120.985 8.37001V10.26H120.685C120.965 9.06001 121.515 8.15001 122.335 7.53001C123.155 6.91001 124.245 6.54001 125.605 6.42001C126.025 6.38001 126.355 6.49001 126.595 6.75001C126.855 6.99001 127.005 7.37001 127.045 7.89001C127.085 8.39001 126.965 8.80001 126.685 9.12001C126.425 9.42001 126.025 9.60001 125.485 9.66001L124.825 9.72001C123.605 9.84001 122.685 10.22 122.065 10.86C121.445 11.48 121.135 12.36 121.135 13.5V19.71C121.135 20.33 120.975 20.81 120.655 21.15C120.335 21.47 119.865 21.63 119.245 21.63ZM136.069 21.69C134.409 21.69 132.979 21.38 131.779 20.76C130.579 20.14 129.649 19.26 128.989 18.12C128.349 16.98 128.029 15.63 128.029 14.07C128.029 12.55 128.339 11.22 128.959 10.08C129.599 8.94001 130.469 8.05001 131.569 7.41001C132.689 6.75001 133.959 6.42001 135.379 6.42001C136.419 6.42001 137.349 6.59001 138.169 6.93001C139.009 7.27001 139.719 7.76001 140.299 8.40001C140.899 9.04001 141.349 9.82001 141.649 10.74C141.969 11.64 142.129 12.66 142.129 13.8C142.129 14.16 141.999 14.44 141.739 14.64C141.499 14.82 141.149 14.91 140.689 14.91H131.059V12.75H139.489L139.009 13.2C139.009 12.28 138.869 11.51 138.589 10.89C138.329 10.27 137.939 9.80001 137.419 9.48001C136.919 9.14001 136.289 8.97001 135.529 8.97001C134.689 8.97001 133.969 9.17001 133.369 9.57001C132.789 9.95001 132.339 10.5 132.019 11.22C131.719 11.92 131.569 12.76 131.569 13.74V13.95C131.569 15.59 131.949 16.82 132.709 17.64C133.489 18.44 134.629 18.84 136.129 18.84C136.649 18.84 137.229 18.78 137.869 18.66C138.529 18.52 139.149 18.29 139.729 17.97C140.149 17.73 140.519 17.63 140.839 17.67C141.159 17.69 141.409 17.8 141.589 18C141.789 18.2 141.909 18.45 141.949 18.75C141.989 19.03 141.929 19.32 141.769 19.62C141.629 19.92 141.379 20.18 141.019 20.4C140.319 20.84 139.509 21.17 138.589 21.39C137.689 21.59 136.849 21.69 136.069 21.69ZM147.92 21.63C147.32 21.63 146.85 21.47 146.51 21.15C146.19 20.81 146.03 20.33 146.03 19.71V9.54001H144.65C144.17 9.54001 143.8 9.42001 143.54 9.18001C143.28 8.92001 143.15 8.57001 143.15 8.13001C143.15 7.67001 143.28 7.32001 143.54 7.08001C143.8 6.84001 144.17 6.72001 144.65 6.72001H147.11L146.03 7.71001V6.69001C146.03 4.63001 146.55 3.09001 147.59 2.07001C148.63 1.03001 150.13 0.420013 152.09 0.240013L153.11 0.150015C153.51 0.110014 153.83 0.180014 154.07 0.360014C154.31 0.520014 154.47 0.740014 154.55 1.02001C154.63 1.28001 154.64 1.55001 154.58 1.83001C154.52 2.11001 154.39 2.36001 154.19 2.58001C154.01 2.78001 153.77 2.89001 153.47 2.91001L153.05 2.94001C151.91 3.02001 151.08 3.31001 150.56 3.81001C150.04 4.31001 149.78 5.07001 149.78 6.09001V7.20001L149.3 6.72001H152.33C152.81 6.72001 153.18 6.84001 153.44 7.08001C153.7 7.32001 153.83 7.67001 153.83 8.13001C153.83 8.57001 153.7 8.92001 153.44 9.18001C153.18 9.42001 152.81 9.54001 152.33 9.54001H149.78V19.71C149.78 20.99 149.16 21.63 147.92 21.63ZM158.174 21.63C157.574 21.63 157.104 21.47 156.764 21.15C156.444 20.81 156.284 20.33 156.284 19.71V9.54001H154.904C154.424 9.54001 154.054 9.42001 153.794 9.18001C153.534 8.92001 153.404 8.57001 153.404 8.13001C153.404 7.67001 153.534 7.32001 153.794 7.08001C154.054 6.84001 154.424 6.72001 154.904 6.72001H157.364L156.284 7.71001V6.69001C156.284 4.63001 156.804 3.09001 157.844 2.07001C158.884 1.03001 160.384 0.420013 162.344 0.240013L163.364 0.150015C163.764 0.110014 164.084 0.180014 164.324 0.360014C164.564 0.520014 164.724 0.740014 164.804 1.02001C164.884 1.28001 164.894 1.55001 164.834 1.83001C164.774 2.11001 164.644 2.36001 164.444 2.58001C164.264 2.78001 164.024 2.89001 163.724 2.91001L163.304 2.94001C162.164 3.02001 161.334 3.31001 160.814 3.81001C160.294 4.31001 160.034 5.07001 160.034 6.09001V7.20001L159.554 6.72001H162.584C163.064 6.72001 163.434 6.84001 163.694 7.08001C163.954 7.32001 164.084 7.67001 164.084 8.13001C164.084 8.57001 163.954 8.92001 163.694 9.18001C163.434 9.42001 163.064 9.54001 162.584 9.54001H160.034V19.71C160.034 20.99 159.414 21.63 158.174 21.63Z" fill="#222222"/>
</svg>
