<svg width="222" height="42" viewBox="0 0 222 42" fill="none" xmlns="http://www.w3.org/2000/svg">
<circle cx="7.9017" cy="18.8256" r="5.34554" fill="#3F7CF4"/>
<path d="M14.1773 23.4739C10.7465 28.277 6.12874 26.8552 3.79179 25.2678C3.45572 25.0396 3.01551 24.9891 2.68557 25.2262C1.08951 26.3729 0.27417 28.225 0.0271053 29.1741C0.00803931 29.2473 0 29.3225 0 29.3982V36.6512C0 37.2035 0.447716 37.6512 1 37.6512H15.5015C16.0537 37.6512 16.5015 37.2035 16.5015 36.6512V27.971C16.5015 27.7668 16.5637 27.57 16.6755 27.3991C17.9585 25.4382 20.2201 20.7767 20.2201 15.8042C20.2201 11.3717 17.7491 11.3982 16.2498 12.1255C15.8281 12.3301 15.7243 12.848 15.8765 13.2913C16.5674 15.3038 17.0742 19.4183 14.1773 23.4739Z" fill="#3F7CF4"/>
<circle cx="5.34554" cy="5.34554" r="5.34554" transform="matrix(-1 0 0 1 42.0674 13.4801)" fill="#3F7CF4"/>
<path d="M30.4462 23.4739C33.877 28.277 38.4948 26.8552 40.8317 25.2678C41.1678 25.0396 41.608 24.9891 41.938 25.2262C43.534 26.3729 44.3494 28.225 44.5964 29.1741C44.6155 29.2473 44.6235 29.3225 44.6235 29.3982V36.6512C44.6235 37.2035 44.1758 37.6512 43.6235 37.6512H29.1221C28.5698 37.6512 28.1221 37.2035 28.1221 36.6512V27.971C28.1221 27.7668 28.0598 27.57 27.9481 27.3991C26.665 25.4382 24.4034 20.7767 24.4034 15.8042C24.4034 11.3717 26.8744 11.3982 28.3738 12.1255C28.7955 12.3301 28.8993 12.848 28.7471 13.2913C28.0562 15.3038 27.5494 19.4183 30.4462 23.4739Z" fill="#3F7CF4"/>
<rect x="13.1113" y="2.10571" width="3.39893" height="6.80394" rx="1.69947" transform="rotate(-20.2442 13.1113 2.10571)" fill="#3F7CF4"/>
<rect x="20.7466" width="3.39893" height="6.80394" rx="1.69947" transform="rotate(0.522652 20.7466 0)" fill="#3F7CF4"/>
<rect x="28.7886" y="1.01135" width="3.39893" height="6.80394" rx="1.69947" transform="rotate(24.5199 28.7886 1.01135)" fill="#3F7CF4"/>
<path d="M58.0376 38.24C57.4176 38.24 56.9376 38.07 56.5976 37.73C56.2776 37.37 56.1176 36.88 56.1176 36.26V18.8C56.1176 18.16 56.2876 17.68 56.6276 17.36C56.9676 17.02 57.4476 16.85 58.0676 16.85H65.2976C67.6176 16.85 69.4076 17.43 70.6676 18.59C71.9276 19.75 72.5576 21.37 72.5576 23.45C72.5576 25.53 71.9276 27.16 70.6676 28.34C69.4076 29.5 67.6176 30.08 65.2976 30.08H59.9576V36.26C59.9576 36.88 59.7976 37.37 59.4776 37.73C59.1576 38.07 58.6776 38.24 58.0376 38.24ZM59.9576 27.05H64.6976C66.0576 27.05 67.0876 26.75 67.7876 26.15C68.4876 25.53 68.8376 24.63 68.8376 23.45C68.8376 22.27 68.4876 21.38 67.7876 20.78C67.0876 20.18 66.0576 19.88 64.6976 19.88H59.9576V27.05ZM80.3379 38.3C78.6779 38.3 77.4279 37.83 76.5879 36.89C75.7479 35.93 75.3279 34.53 75.3279 32.69V18.5C75.3279 17.88 75.4879 17.41 75.8079 17.09C76.1279 16.77 76.5879 16.61 77.1879 16.61C77.7879 16.61 78.2479 16.77 78.5679 17.09C78.9079 17.41 79.0779 17.88 79.0779 18.5V32.51C79.0779 33.43 79.2679 34.11 79.6479 34.55C80.0479 34.99 80.6079 35.21 81.3279 35.21C81.4879 35.21 81.6379 35.21 81.7779 35.21C81.9179 35.19 82.0579 35.17 82.1979 35.15C82.4779 35.11 82.6679 35.19 82.7679 35.39C82.8679 35.57 82.9179 35.95 82.9179 36.53C82.9179 37.03 82.8179 37.42 82.6179 37.7C82.4179 37.98 82.0879 38.15 81.6279 38.21C81.4279 38.23 81.2179 38.25 80.9979 38.27C80.7779 38.29 80.5579 38.3 80.3379 38.3ZM89.738 38.3C88.678 38.3 87.728 38.1 86.888 37.7C86.068 37.28 85.418 36.72 84.938 36.02C84.478 35.32 84.248 34.53 84.248 33.65C84.248 32.57 84.528 31.72 85.088 31.1C85.648 30.46 86.558 30 87.818 29.72C89.078 29.44 90.768 29.3 92.888 29.3H94.388V31.46H92.918C91.678 31.46 90.688 31.52 89.948 31.64C89.208 31.76 88.678 31.97 88.358 32.27C88.058 32.55 87.908 32.95 87.908 33.47C87.908 34.13 88.138 34.67 88.598 35.09C89.058 35.51 89.698 35.72 90.518 35.72C91.178 35.72 91.758 35.57 92.258 35.27C92.778 34.95 93.188 34.52 93.488 33.98C93.788 33.44 93.938 32.82 93.938 32.12V28.67C93.938 27.67 93.718 26.95 93.278 26.51C92.838 26.07 92.098 25.85 91.058 25.85C90.478 25.85 89.848 25.92 89.168 26.06C88.508 26.2 87.808 26.44 87.068 26.78C86.688 26.96 86.348 27.01 86.048 26.93C85.768 26.85 85.548 26.69 85.388 26.45C85.228 26.19 85.148 25.91 85.148 25.61C85.148 25.31 85.228 25.02 85.388 24.74C85.548 24.44 85.818 24.22 86.198 24.08C87.118 23.7 87.998 23.43 88.838 23.27C89.698 23.11 90.478 23.03 91.178 23.03C92.618 23.03 93.798 23.25 94.718 23.69C95.658 24.13 96.358 24.8 96.818 25.7C97.278 26.58 97.508 27.72 97.508 29.12V36.32C97.508 36.94 97.358 37.42 97.058 37.76C96.758 38.08 96.328 38.24 95.768 38.24C95.208 38.24 94.768 38.08 94.448 37.76C94.148 37.42 93.998 36.94 93.998 36.32V34.88H94.238C94.098 35.58 93.818 36.19 93.398 36.71C92.998 37.21 92.488 37.6 91.868 37.88C91.248 38.16 90.538 38.3 89.738 38.3ZM108.034 38.3C106.734 38.3 105.644 38.08 104.764 37.64C103.904 37.2 103.264 36.56 102.844 35.72C102.424 34.86 102.214 33.8 102.214 32.54V26.15H100.654C100.174 26.15 99.8043 26.03 99.5443 25.79C99.2843 25.53 99.1543 25.18 99.1543 24.74C99.1543 24.28 99.2843 23.93 99.5443 23.69C99.8043 23.45 100.174 23.33 100.654 23.33H102.214V20.6C102.214 19.98 102.374 19.51 102.694 19.19C103.034 18.87 103.504 18.71 104.104 18.71C104.704 18.71 105.164 18.87 105.484 19.19C105.804 19.51 105.964 19.98 105.964 20.6V23.33H109.144C109.624 23.33 109.994 23.45 110.254 23.69C110.514 23.93 110.644 24.28 110.644 24.74C110.644 25.18 110.514 25.53 110.254 25.79C109.994 26.03 109.624 26.15 109.144 26.15H105.964V32.33C105.964 33.29 106.174 34.01 106.594 34.49C107.014 34.97 107.694 35.21 108.634 35.21C108.974 35.21 109.274 35.18 109.534 35.12C109.794 35.06 110.024 35.02 110.224 35C110.464 34.98 110.664 35.06 110.824 35.24C110.984 35.4 111.064 35.74 111.064 36.26C111.064 36.66 110.994 37.02 110.854 37.34C110.734 37.64 110.504 37.85 110.164 37.97C109.904 38.05 109.564 38.12 109.144 38.18C108.724 38.26 108.354 38.3 108.034 38.3ZM118.698 38.3C117.398 38.3 116.308 38.08 115.428 37.64C114.568 37.2 113.928 36.56 113.508 35.72C113.088 34.86 112.878 33.8 112.878 32.54V26.15H111.318C110.838 26.15 110.468 26.03 110.208 25.79C109.948 25.53 109.818 25.18 109.818 24.74C109.818 24.28 109.948 23.93 110.208 23.69C110.468 23.45 110.838 23.33 111.318 23.33H112.878V20.6C112.878 19.98 113.038 19.51 113.358 19.19C113.698 18.87 114.168 18.71 114.768 18.71C115.368 18.71 115.828 18.87 116.148 19.19C116.468 19.51 116.628 19.98 116.628 20.6V23.33H119.808C120.288 23.33 120.658 23.45 120.918 23.69C121.178 23.93 121.308 24.28 121.308 24.74C121.308 25.18 121.178 25.53 120.918 25.79C120.658 26.03 120.288 26.15 119.808 26.15H116.628V32.33C116.628 33.29 116.838 34.01 117.258 34.49C117.678 34.97 118.358 35.21 119.298 35.21C119.638 35.21 119.938 35.18 120.198 35.12C120.458 35.06 120.688 35.02 120.888 35C121.128 34.98 121.328 35.06 121.488 35.24C121.648 35.4 121.728 35.74 121.728 36.26C121.728 36.66 121.658 37.02 121.518 37.34C121.398 37.64 121.168 37.85 120.828 37.97C120.568 38.05 120.228 38.12 119.808 38.18C119.388 38.26 119.018 38.3 118.698 38.3ZM130.576 38.3C128.916 38.3 127.486 37.99 126.286 37.37C125.086 36.75 124.156 35.87 123.496 34.73C122.856 33.59 122.536 32.24 122.536 30.68C122.536 29.16 122.846 27.83 123.466 26.69C124.106 25.55 124.976 24.66 126.076 24.02C127.196 23.36 128.466 23.03 129.886 23.03C130.926 23.03 131.856 23.2 132.676 23.54C133.516 23.88 134.226 24.37 134.806 25.01C135.406 25.65 135.856 26.43 136.156 27.35C136.476 28.25 136.636 29.27 136.636 30.41C136.636 30.77 136.506 31.05 136.246 31.25C136.006 31.43 135.656 31.52 135.196 31.52H125.566V29.36H133.996L133.516 29.81C133.516 28.89 133.376 28.12 133.096 27.5C132.836 26.88 132.446 26.41 131.926 26.09C131.426 25.75 130.796 25.58 130.036 25.58C129.196 25.58 128.476 25.78 127.876 26.18C127.296 26.56 126.846 27.11 126.526 27.83C126.226 28.53 126.076 29.37 126.076 30.35V30.56C126.076 32.2 126.456 33.43 127.216 34.25C127.996 35.05 129.136 35.45 130.636 35.45C131.156 35.45 131.736 35.39 132.376 35.27C133.036 35.13 133.656 34.9 134.236 34.58C134.656 34.34 135.026 34.24 135.346 34.28C135.666 34.3 135.916 34.41 136.096 34.61C136.296 34.81 136.416 35.06 136.456 35.36C136.496 35.64 136.436 35.93 136.276 36.23C136.136 36.53 135.886 36.79 135.526 37.01C134.826 37.45 134.016 37.78 133.096 38C132.196 38.2 131.356 38.3 130.576 38.3ZM141.465 38.24C140.865 38.24 140.405 38.08 140.085 37.76C139.765 37.42 139.605 36.94 139.605 36.32V24.98C139.605 24.36 139.765 23.89 140.085 23.57C140.405 23.25 140.855 23.09 141.435 23.09C142.015 23.09 142.465 23.25 142.785 23.57C143.105 23.89 143.265 24.36 143.265 24.98V27.02L142.935 26.27C143.375 25.21 144.055 24.41 144.975 23.87C145.915 23.31 146.975 23.03 148.155 23.03C149.335 23.03 150.305 23.25 151.065 23.69C151.825 24.13 152.395 24.8 152.775 25.7C153.155 26.58 153.345 27.7 153.345 29.06V36.32C153.345 36.94 153.185 37.42 152.865 37.76C152.545 38.08 152.085 38.24 151.485 38.24C150.885 38.24 150.415 38.08 150.075 37.76C149.755 37.42 149.595 36.94 149.595 36.32V29.24C149.595 28.1 149.375 27.27 148.935 26.75C148.515 26.23 147.855 25.97 146.955 25.97C145.855 25.97 144.975 26.32 144.315 27.02C143.675 27.7 143.355 28.61 143.355 29.75V36.32C143.355 37.6 142.725 38.24 141.465 38.24Z" fill="#3F7CF4"/>
<path d="M164.534 38.24C163.914 38.24 163.434 38.07 163.094 37.73C162.774 37.37 162.614 36.88 162.614 36.26V20.06H156.764C156.244 20.06 155.834 19.92 155.534 19.64C155.254 19.34 155.114 18.94 155.114 18.44C155.114 17.92 155.254 17.53 155.534 17.27C155.834 16.99 156.244 16.85 156.764 16.85H172.304C172.824 16.85 173.224 16.99 173.504 17.27C173.804 17.53 173.954 17.92 173.954 18.44C173.954 18.94 173.804 19.34 173.504 19.64C173.224 19.92 172.824 20.06 172.304 20.06H166.454V36.26C166.454 36.88 166.294 37.37 165.974 37.73C165.654 38.07 165.174 38.24 164.534 38.24ZM175.363 38.24C174.743 38.24 174.263 38.08 173.923 37.76C173.603 37.42 173.443 36.94 173.443 36.32V24.98C173.443 24.36 173.603 23.89 173.923 23.57C174.243 23.25 174.693 23.09 175.273 23.09C175.853 23.09 176.303 23.25 176.623 23.57C176.943 23.89 177.103 24.36 177.103 24.98V26.87H176.803C177.083 25.67 177.633 24.76 178.453 24.14C179.273 23.52 180.363 23.15 181.723 23.03C182.143 22.99 182.473 23.1 182.713 23.36C182.973 23.6 183.123 23.98 183.163 24.5C183.203 25 183.083 25.41 182.803 25.73C182.543 26.03 182.143 26.21 181.603 26.27L180.943 26.33C179.723 26.45 178.803 26.83 178.183 27.47C177.563 28.09 177.253 28.97 177.253 30.11V36.32C177.253 36.94 177.093 37.42 176.773 37.76C176.453 38.08 175.983 38.24 175.363 38.24ZM192.187 38.3C190.527 38.3 189.097 37.99 187.897 37.37C186.697 36.75 185.767 35.87 185.107 34.73C184.467 33.59 184.147 32.24 184.147 30.68C184.147 29.16 184.457 27.83 185.077 26.69C185.717 25.55 186.587 24.66 187.687 24.02C188.807 23.36 190.077 23.03 191.497 23.03C192.537 23.03 193.467 23.2 194.287 23.54C195.127 23.88 195.837 24.37 196.417 25.01C197.017 25.65 197.467 26.43 197.767 27.35C198.087 28.25 198.247 29.27 198.247 30.41C198.247 30.77 198.117 31.05 197.857 31.25C197.617 31.43 197.267 31.52 196.807 31.52H187.177V29.36H195.607L195.127 29.81C195.127 28.89 194.987 28.12 194.707 27.5C194.447 26.88 194.057 26.41 193.537 26.09C193.037 25.75 192.407 25.58 191.647 25.58C190.807 25.58 190.087 25.78 189.487 26.18C188.907 26.56 188.457 27.11 188.137 27.83C187.837 28.53 187.687 29.37 187.687 30.35V30.56C187.687 32.2 188.067 33.43 188.827 34.25C189.607 35.05 190.747 35.45 192.247 35.45C192.767 35.45 193.347 35.39 193.987 35.27C194.647 35.13 195.267 34.9 195.847 34.58C196.267 34.34 196.637 34.24 196.957 34.28C197.277 34.3 197.527 34.41 197.707 34.61C197.907 34.81 198.027 35.06 198.067 35.36C198.107 35.64 198.047 35.93 197.887 36.23C197.747 36.53 197.497 36.79 197.137 37.01C196.437 37.45 195.627 37.78 194.707 38C193.807 38.2 192.967 38.3 192.187 38.3ZM204.038 38.24C203.438 38.24 202.968 38.08 202.628 37.76C202.308 37.42 202.148 36.94 202.148 36.32V26.15H200.768C200.288 26.15 199.918 26.03 199.658 25.79C199.398 25.53 199.268 25.18 199.268 24.74C199.268 24.28 199.398 23.93 199.658 23.69C199.918 23.45 200.288 23.33 200.768 23.33H203.228L202.148 24.32V23.3C202.148 21.24 202.668 19.7 203.708 18.68C204.748 17.64 206.248 17.03 208.208 16.85L209.228 16.76C209.628 16.72 209.948 16.79 210.188 16.97C210.428 17.13 210.588 17.35 210.668 17.63C210.748 17.89 210.758 18.16 210.698 18.44C210.638 18.72 210.508 18.97 210.308 19.19C210.128 19.39 209.888 19.5 209.588 19.52L209.168 19.55C208.028 19.63 207.198 19.92 206.678 20.42C206.158 20.92 205.898 21.68 205.898 22.7V23.81L205.418 23.33H208.448C208.928 23.33 209.298 23.45 209.558 23.69C209.818 23.93 209.948 24.28 209.948 24.74C209.948 25.18 209.818 25.53 209.558 25.79C209.298 26.03 208.928 26.15 208.448 26.15H205.898V36.32C205.898 37.6 205.278 38.24 204.038 38.24ZM214.292 38.24C213.692 38.24 213.222 38.08 212.882 37.76C212.562 37.42 212.402 36.94 212.402 36.32V26.15H211.022C210.542 26.15 210.172 26.03 209.912 25.79C209.652 25.53 209.522 25.18 209.522 24.74C209.522 24.28 209.652 23.93 209.912 23.69C210.172 23.45 210.542 23.33 211.022 23.33H213.482L212.402 24.32V23.3C212.402 21.24 212.922 19.7 213.962 18.68C215.002 17.64 216.502 17.03 218.462 16.85L219.482 16.76C219.882 16.72 220.202 16.79 220.442 16.97C220.682 17.13 220.842 17.35 220.922 17.63C221.002 17.89 221.012 18.16 220.952 18.44C220.892 18.72 220.762 18.97 220.562 19.19C220.382 19.39 220.142 19.5 219.842 19.52L219.422 19.55C218.282 19.63 217.452 19.92 216.932 20.42C216.412 20.92 216.152 21.68 216.152 22.7V23.81L215.672 23.33H218.702C219.182 23.33 219.552 23.45 219.812 23.69C220.072 23.93 220.202 24.28 220.202 24.74C220.202 25.18 220.072 25.53 219.812 25.79C219.552 26.03 219.182 26.15 218.702 26.15H216.152V36.32C216.152 37.6 215.532 38.24 214.292 38.24Z" fill="#222222"/>
</svg>
