<svg width="180" height="180" viewBox="0 0 180 180" fill="none" xmlns="http://www.w3.org/2000/svg">
  <!-- Hintergrund: weiss mit abgerundeten Ecken (fuer Apple Touch Icon) -->
  <rect width="180" height="180" rx="40" fill="#3F7CF4"/>
  <!-- logo-bild, zentriert auf 180x180: original 45x38, skaliert auf 108x91.2, Offset x=36, y=44.4 -->
  <g transform="translate(36, 44.4) scale(2.4)">
    <circle cx="7.9017" cy="18.8256" r="5.34554" fill="white"/>
    <path d="M14.1773 23.4739C10.7465 28.277 6.12874 26.8552 3.79179 25.2678C3.45572 25.0396 3.01551 24.9891 2.68557 25.2262C1.08951 26.3729 0.27417 28.225 0.0271053 29.1741C0.00803931 29.2473 0 29.3225 0 29.3982V36.6512C0 37.2035 0.447716 37.6512 1 37.6512H15.5015C16.0537 37.6512 16.5015 37.2035 16.5015 36.6512V27.971C16.5015 27.7668 16.5637 27.57 16.6755 27.3991C17.9585 25.4382 20.2201 20.7767 20.2201 15.8042C20.2201 11.3717 17.7491 11.3982 16.2498 12.1255C15.8281 12.3301 15.7243 12.848 15.8765 13.2913C16.5674 15.3038 17.0742 19.4183 14.1773 23.4739Z" fill="white"/>
    <circle cx="5.34554" cy="5.34554" r="5.34554" transform="matrix(-1 0 0 1 42.0674 13.4801)" fill="white"/>
    <path d="M30.4462 23.4739C33.877 28.277 38.4948 26.8552 40.8317 25.2678C41.1678 25.0396 41.608 24.9891 41.938 25.2262C43.534 26.3729 44.3494 28.225 44.5964 29.1741C44.6155 29.2473 44.6235 29.3225 44.6235 29.3982V36.6512C44.6235 37.2035 44.1758 37.6512 43.6235 37.6512H29.1221C28.5698 37.6512 28.1221 37.2035 28.1221 36.6512V27.971C28.1221 27.7668 28.0598 27.57 27.9481 27.3991C26.665 25.4382 24.4034 20.7767 24.4034 15.8042C24.4034 11.3717 26.8744 11.3982 28.3738 12.1255C28.7955 12.3301 28.8993 12.848 28.7471 13.2913C28.0562 15.3038 27.5494 19.4183 30.4462 23.4739Z" fill="white"/>
    <rect x="13.1113" y="2.10571" width="3.39893" height="6.80394" rx="1.69947" transform="rotate(-20.2442 13.1113 2.10571)" fill="white"/>
    <rect x="20.7466" width="3.39893" height="6.80394" rx="1.69947" transform="rotate(0.522652 20.7466 0)" fill="white"/>
    <rect x="28.7886" y="1.01135" width="3.39893" height="6.80394" rx="1.69947" transform="rotate(24.5199 28.7886 1.01135)" fill="white"/>
  </g>
</svg>
