<?xml version="1.0" encoding="UTF-8"?>
<svg id="Ebene_1" data-name="Ebene 1" xmlns="http://www.w3.org/2000/svg" viewBox="0 0 256 256">
  <defs>
    <style>
      .cls-1 {
        fill: #e8faee;
      }

      .cls-2 {
        fill: #0f8a55;
      }
    </style>
  </defs>
  <rect class="cls-1" width="256" height="256"/>
  <path class="cls-2" d="M128.08,30.79c-36.92,0-66.85,29.93-66.85,66.85,0,32.33,51.26,112.26,64,131.64,1.35,2.05,4.34,2.05,5.69,0,12.75-19.38,64-99.31,64-131.64,0-36.92-29.93-66.85-66.85-66.85ZM119.31,140.56s.33,2.68.91,6.51c.05.3.1.61.15.93.04.25.07.5.12.76.08.54.17,1.09.26,1.66.02.13.04.26.06.39.11.65.22,1.32.34,2,.12.69.24,1.39.37,2.09.03.14.05.28.08.42.1.53.2,1.06.3,1.6.05.25.09.5.14.75-.01,0-.02,0-.03.01h0c-1.07.44-1.22.68-3.18.97-.03,0-.05.01-.08.02-.29.05-.63.09-1.01.14-1.88.24-2.82.27-3.49.21-.33-.03-.6-.09-.88-.16-.28-.07-.57-.15-.97-.23-.03-.66-.07-1.33-.12-1.99-.02-.27-.03-.54-.05-.81-.03-.39-.06-.79-.08-1.18-.04-.55-.08-1.09-.12-1.63-.02-.25-.04-.51-.06-.75-.03-.39-.06-.77-.1-1.15-.02-.2-.03-.4-.05-.6-.07-.75-.13-1.48-.2-2.17,0-.06-.01-.12-.02-.19-.03-.35-.07-.7-.1-1.04-.02-.16-.03-.32-.05-.48-.06-.59-.11-1.14-.17-1.64-.01-.09-.02-.19-.03-.27-.03-.27-.06-.52-.08-.77,0-.08-.02-.17-.03-.25-.14-1.31-.24-2.1-.24-2.1-.04-.29-.11-.56-.16-.83-.53-2.35-1.93-5.97-5.61-8.87l17.25-2c-2.71,3.63-3.18,7.36-3.14,9.73.02.3.02.6.06.91ZM131.83,121.91c-.17.17-.35.35-.54.51-.16.15-.33.29-.49.43-.26.23-.53.45-.81.67-.16.12-.32.25-.48.37-.2.15-.4.29-.6.43-.01.01-.03.02-.04.03-.12.08-.25.17-.38.26-.05.03-.1.07-.15.1l-30.47,3.53c-2.86-1.02-5.31-2.46-7.31-4.33-.87-.8-1.65-1.66-2.35-2.59-.37-.49-.75-1.01-1.1-1.54-.29-.46-.57-.93-.84-1.41-.33-.58-.64-1.18-.93-1.81-.38-.85-.74-1.72-1.06-2.62-.28-.77-.53-1.58-.77-2.4-.56-2.04-.98-4.2-1.26-6.44-2.89-23.4,13.47-32.99,24.21-34.35.75-.08,1.57-.15,2.41-.17.26,0,.52-.01.78-.01,1.47,0,3.02.12,4.6.36.77.12,1.5.27,2.27.46,2.03.48,4.1,1.2,6.1,2.22.62.3,1.24.64,1.83,1,.88.54,1.78,1.15,2.62,1.82.04.02.07.06.11.08.02.02.04.03.06.04.06.05.11.08.16.13.1.07.2.15.29.24.15.12.3.25.46.38.19.14.37.3.54.47.32.29.65.61.97.94.65.66,1.28,1.36,1.89,2.12.59.76,1.18,1.56,1.71,2.41.82,1.28,1.55,2.67,2.21,4.19.43,1.02.84,2.08,1.19,3.2.53,1.67.96,3.49,1.29,5.43.1.65.21,1.32.29,1.99.03.24.06.47.08.7.1.94.18,1.87.23,2.79.06,1.33.07,2.64,0,3.92,0,.18-.02.35-.03.53-.05.79-.13,1.57-.23,2.33-.06.41-.12.82-.19,1.22-.1.56-.22,1.11-.35,1.65-.05.21-.11.43-.16.64-.04.15-.08.29-.12.43-.04.17-.1.34-.15.5-.13.42-.26.83-.42,1.23-.08.23-.17.45-.26.68h0c-.1.23-.19.45-.28.67-.1.22-.2.44-.3.66-.08.18-.17.35-.26.53-.03.06-.06.12-.09.17-.1.2-.21.38-.32.57-.09.17-.19.33-.29.5-.16.26-.32.53-.49.78-.12.19-.25.37-.38.55-.12.17-.24.34-.37.5-.04.06-.08.11-.13.17-.11.15-.23.29-.34.43-.02.03-.04.06-.07.08-.13.16-.26.33-.41.48-.2.23-.41.46-.62.68-.14.15-.29.3-.43.44,0,0,0,.01-.01.01ZM143.88,140.64c-.06.3-.14.59-.19.9,0,0-.38,2.71-.82,6.58-.03.3-.07.62-.1.95-.02.25-.06.51-.08.77-.06.55-.12,1.11-.18,1.69-.01.14-.03.26-.04.39-.07.66-.13,1.34-.19,2.04-.07.7-.13,1.42-.19,2.14-.01.15-.02.28-.03.43-.04.54-.08,1.09-.12,1.64-.02.25-.04.51-.06.77-.01,0-.02,0-.03,0h0c-1.16.15-1.37.34-3.36.11h-.08c-.3-.03-.64-.08-1.02-.14-1.9-.25-2.82-.47-3.45-.71-.32-.12-.56-.24-.82-.39-.25-.14-.52-.29-.88-.47.14-.65.28-1.31.41-1.96.05-.27.11-.53.16-.8.07-.39.15-.79.23-1.17.1-.55.2-1.09.3-1.62.05-.25.09-.5.14-.75.07-.39.14-.77.21-1.15.03-.2.07-.4.11-.59.13-.75.26-1.48.37-2.17.01-.06.02-.12.03-.19.06-.35.12-.7.17-1.04.03-.16.05-.32.08-.48.1-.59.19-1.14.26-1.64.01-.09.03-.19.04-.27.05-.27.08-.52.12-.77.02-.08.03-.17.04-.25.2-1.31.32-2.1.32-2.1.04-.3.05-.57.07-.86.07-2-.19-4.98-1.86-8.08.72-.48,1.41-1,2.07-1.54l13.97,2.06c-3.58,2.84-5.02,6.34-5.6,8.66ZM173.48,103.02c-.07.66-.14,1.34-.24,2.01-1.52,10.96-6.35,19.99-16.43,23.35-.05.02-.11.04-.17.06l-17.02-2.51c2.45-2.89,4.31-6.25,5.56-10.05,1.82-5.5,2.3-11.84,1.43-18.85-.09-.75-.2-1.46-.3-2.09l-.03-.19v-.06s-.02-.06-.02-.06c-.41-2.35-.93-4.55-1.56-6.55-.38-1.23-.85-2.48-1.46-3.93v-.03s-.03-.03-.03-.03c-.81-1.89-1.76-3.69-2.82-5.36-.61-.97-1.31-1.96-2.19-3.09l-.04-.06-.05-.06c-.76-.94-1.56-1.83-2.44-2.73l-.03-.02-.02-.03c-.24-.23-.49-.48-.77-.75,5.1-2.03,10.37-2.43,14.52-1.86.76.11,1.57.26,2.4.46,1.67.4,3.41.98,5.14,1.74.71.32,1.4.66,2.09,1.04,1.85,1,3.68,2.24,5.37,3.76.52.45,1.04.95,1.52,1.45.72.76,1.44,1.59,2.08,2.46.04.03.05.08.08.11.25.33.5.66.74,1.02.15.19.28.39.41.6.24.37.47.77.7,1.17.46.81.89,1.65,1.29,2.56.38.89.75,1.83,1.04,2.8.46,1.46.82,3,1.06,4.66.15,1.1.28,2.24.32,3.43.08,1.77.03,3.65-.16,5.64Z"/>
</svg>