<?xml version="1.0" encoding="UTF-8"?>
<svg id="Ebene_1" data-name="Ebene 1" xmlns="http://www.w3.org/2000/svg" viewBox="0 0 50 50">
  <defs>
    <style>
      .cls-1 {
        fill: #3f7cf4;
      }
    </style>
  </defs>
  <path class="cls-1" d="M8.33,28.63v12.35c0,.45-.36.8-.79.8s-.8-.36-.8-.8v-12.35h1.6Z"/>
  <path class="cls-1" d="M43.49,28.63v12.35c0,.45-.36.8-.8.8s-.8-.36-.8-.8v-12.35h1.61Z"/>
  <path class="cls-1" d="M5.83,17.02L.8,26.64c-.09.17.03.38.23.38h23.28v-10.01H5.83ZM49.43,26.64l-5.03-9.63h-18.49v10.01h23.27c.2,0,.33-.21.25-.38Z"/>
  <rect class="cls-1" x="4.34" y="12.22" width="41.54" height="3.2"/>
</svg>