<?xml version="1.0" encoding="UTF-8"?>
<svg id="Ebene_1" xmlns="http://www.w3.org/2000/svg" version="1.1" viewBox="0 0 51.6 59.8">
  <!-- Generator: Adobe Illustrator 30.5.1, SVG Export Plug-In . SVG Version: 2.1.4 Build 3)  -->
  <defs>
    <style>
      .st0 {
        fill: currentColor;
      }
    </style>
  </defs>
  <circle class="st0" cx="15.8" cy="7" r="7"/>
  <circle class="st0" cx="36" cy="7" r="7"/>
  <path class="st0" d="M41.2,17.7c.7,0,1.3.4,1.6,1l8.6,16.8c.6,1.1.1,2.5-1,3.1h0c-1.1.5-2.4.2-3-.8l-3.2-5.3c-.2-.3-.7-.2-.7.2v24.8c0,1.3-1.1,2.4-2.4,2.4h0c-1.3,0-2.4-1.1-2.4-2.4v-13c0-1.5-1.2-2.6-2.6-2.6h0c-1.5,0-2.6,1.2-2.6,2.6v13c0,1.3-1.1,2.4-2.4,2.4h-.2c-1.3,0-2.4-1.1-2.4-2.4v-25.6c.1,0,.1-6.8.1-6.8,0-1.4-1.2-2.6-2.6-2.6h0c-1.4,0-2.6,1.2-2.6,2.6v32.4c0,1.3-1.1,2.4-2.4,2.4h-.2c-1.3,0-2.4-1.1-2.4-2.4v-13c0-1.5-1.2-2.6-2.6-2.6h0c-1.5,0-2.6,1.2-2.6,2.6v13c0,1.3-1.1,2.4-2.4,2.4h0c-1.3,0-2.4-1.1-2.4-2.4v-24.8c0-.4-.5-.5-.7-.2l-3.2,5.3c-.6,1-1.9,1.4-3,.8h0c-1.1-.6-1.6-2-1-3.1l8.6-16.8c.3-.6.9-1,1.6-1h30.8,0Z"/>
</svg>