<?xml version="1.0" encoding="UTF-8"?><svg id="Ebene_1" xmlns="http://www.w3.org/2000/svg" viewBox="0 0 64 64"><defs><style>.cls-1{fill:#3f7cf4;}</style></defs><circle class="cls-1" cx="25.04" cy="16.23" r="4.88"/><circle class="cls-1" cx="39.09" cy="16.23" r="4.88"/><path class="cls-1" d="m42.71,23.62c.46,0,.87.26,1.08.66l5.98,11.67c.4.79.09,1.75-.7,2.16h0c-.74.38-1.64.13-2.08-.57l-2.23-3.66c-.13-.22-.47-.12-.47.13v17.22c0,.92-.75,1.67-1.67,1.67h0c-.92,0-1.67-.75-1.67-1.67v-9.03c0-1.02-.82-1.84-1.84-1.84h0c-1.02,0-1.84.82-1.84,1.84v9.03c0,.92-.75,1.67-1.67,1.67h-.17c-.92,0-1.67-.75-1.67-1.67l.08-17.8v-4.72c0-.99-.8-1.78-1.78-1.78h0c-.99,0-1.78.8-1.78,1.78v22.53c0,.92-.75,1.67-1.67,1.67h-.17c-.92,0-1.67-.75-1.67-1.67v-9.03c0-1.02-.82-1.84-1.84-1.84h0c-1.02,0-1.84.82-1.84,1.84v9.03c0,.92-.75,1.67-1.67,1.67h0c-.92,0-1.67-.75-1.67-1.67v-17.22c0-.26-.34-.35-.47-.13l-2.23,3.66c-.44.7-1.34.95-2.08.57h0c-.79-.4-1.1-1.37-.7-2.16l5.98-11.67c.21-.41.63-.66,1.08-.66h21.41Z"/></svg>