<?xml version="1.0" encoding="UTF-8"?>
<svg id="Ebene_1" data-name="Ebene 1" xmlns="http://www.w3.org/2000/svg" viewBox="0 0 64 64">
  <defs>
    <style>
      .cls-1 {
        fill: #3f7cf4;
      }
    </style>
  </defs>
  <g id="_7ssAZo.tif" data-name="7ssAZo.tif">
    <path class="cls-1" d="M37.86,40.64c0-.72,0-1.8,0-1.8l-11.66.21-.08,15.33-9.38.08c-1.4.01-2.85-1.36-2.85-2.71l-.02-16.01c0-3.41-4.41-1.95-5.24-4.31-.34-.96-.07-2.39.7-3.07L29.29,10.87c1.17-1.02,2.99-2,4.44-.74l20.69,18c.95.83,1.34,2.13.91,3.29-.91,2.48-5.71.86-5.71,4.04l-.02,16c0,1.28-.97,2.91-2.43,2.91l-9.35-.02.03-13.72Z"/>
  </g>
</svg>