<?xml version="1.0" encoding="UTF-8"?>
<svg id="Ebene_1" xmlns="http://www.w3.org/2000/svg" version="1.1" viewBox="0 0 60.3 57.6">
  <!-- Generator: Adobe Illustrator 30.5.1, SVG Export Plug-In . SVG Version: 2.1.4 Build 3)  -->
  <defs>
    <style>
      .st0 {
        fill: #3f7cf4;
      }
    </style>
  </defs>
  <g id="_7ssAZo.tif">
    <path class="st0" d="M37.7,39.9v-2.3l-15,.3v19.7c-.1,0-12.1.1-12.1.1-1.8,0-3.7-1.7-3.7-3.5v-20.5c0-4.4-5.7-2.5-6.7-5.5-.4-1.2,0-3.1.9-3.9L26.7,1.7c1.5-1.3,3.8-2.6,5.7-.9l26.5,23.1c1.2,1.1,1.7,2.7,1.2,4.2-1.2,3.2-7.3,1.1-7.3,5.2v20.5c0,1.6-1.3,3.7-3.1,3.7h-12s0-17.6,0-17.6h0Z"/>
  </g>
</svg>