<?xml version="1.0" encoding="UTF-8"?><svg id="Ebene_1" xmlns="http://www.w3.org/2000/svg" viewBox="0 0 64 64"><defs><style>.cls-1{fill:#3f7cf4;}</style></defs><path class="cls-1" d="m51.63,47.24c0,3.23-8.06,6.81-19.63,6.81s-19.63-3.58-19.63-6.81c0-2.58,5.42-5.66,14.54-6.55,2.22,3.71,4.07,6.47,4.26,6.76l.83,1.24.83-1.24c.19-.29,2.04-3.05,4.27-6.76,9.44.92,14.53,4.05,14.53,6.55Z"/><path class="cls-1" d="m32,9.95c-6.32,0-11.47,5.14-11.47,11.47,0,5.5,8.71,19.38,11.47,23.65,2.76-4.27,11.47-18.15,11.47-23.65,0-6.33-5.15-11.47-11.47-11.47Zm0,18.36c-4.06,0-7.36-3.3-7.36-7.36s3.3-7.36,7.36-7.36,7.36,3.3,7.36,7.36-3.3,7.36-7.36,7.36Z"/><circle class="cls-1" cx="32" cy="20.95" r="5.36" transform="translate(-5.58 13.84) rotate(-22.5)"/></svg>