<?xml version="1.0" encoding="UTF-8"?>
<svg id="Ebene_1" xmlns="http://www.w3.org/2000/svg" version="1.1" viewBox="0 0 53.8 60.5">
  <!-- Generator: Adobe Illustrator 30.5.1, SVG Export Plug-In . SVG Version: 2.1.4 Build 3)  -->
  <defs>
    <style>
      .st0 {
        fill: #3f7cf4;
      }
    </style>
  </defs>
  <path class="st0" d="M53.8,51.1c0,4.4-11,9.3-26.9,9.3S0,55.5,0,51.1s7.4-7.8,19.9-9c3,5.1,5.6,8.9,5.8,9.3l1.1,1.7,1.1-1.7c.3-.4,2.8-4.2,5.9-9.3,12.9,1.3,19.9,5.6,19.9,9Z"/>
  <path class="st0" d="M26.9,0c-8.7,0-15.7,7-15.7,15.7s11.9,26.6,15.7,32.4c3.8-5.9,15.7-24.9,15.7-32.4S35.6,0,26.9,0ZM26.9,25.2c-5.6,0-10.1-4.5-10.1-10.1s4.5-10.1,10.1-10.1,10.1,4.5,10.1,10.1-4.5,10.1-10.1,10.1Z"/>
  <circle class="st0" cx="26.9" cy="15.1" r="7.3"/>
</svg>