<svg width="17" height="17" viewBox="0 0 17 17" fill="none" xmlns="http://www.w3.org/2000/svg">
<path d="M3.03452 9.73425V12.5517C3.03452 12.6544 2.80952 12.7343 2.54077 12.7343C2.27202 12.7343 2.04077 12.6521 2.04077 12.5517V9.73425H3.04077H3.03452Z" fill="#66726A"/>
<path d="M15.0346 9.73425V12.5517C15.0346 12.6544 14.811 12.7343 14.5377 12.7343C14.2644 12.7343 14.0408 12.6521 14.0408 12.5517V9.73425H15.0408H15.0346Z" fill="#66726A"/>
<path d="M1.98224 5.78685L0.272039 9.05765C0.241439 9.11545 0.282239 9.18685 0.350239 9.18685H8.26544V5.78345H1.98224V5.78685ZM16.8062 9.05765L15.096 5.78345H8.80944V9.18685H16.7212C16.7892 9.18685 16.8334 9.11545 16.8062 9.05765Z" fill="#66726A"/>
<path d="M15.5992 4.15479H1.47559V5.24279H15.5992V4.15479Z" fill="#66726A"/>
</svg>
