<?xml version="1.0" encoding="UTF-8"?>
<svg id="Ebene_1" xmlns="http://www.w3.org/2000/svg" version="1.1" viewBox="0 0 62.1 61.7">
  <!-- Generator: Adobe Illustrator 30.5.1, SVG Export Plug-In . SVG Version: 2.1.4 Build 3)  -->
  <path d="M14.1,28.1c.2,1.9.7,3.8,1.4,5.5h0s0,0,0,0c0,.2.2.4.3.6.5,1.3,1.1,4.7-3.1,8.6L.8,54.6c-1.1,1.1-1.1,2.8-.1,3.9l2,2.2c1.1,1.2,3,1.3,4.1.1l13.6-13.5s3-2.6,7.5-1.3c0,0,0,0,0,0,1.5.6,3.1,1,4.7,1.3L14.1,28.1h0Z"/>
  <path d="M56.8,7.9C48.5-1.9,33.3-2.7,22.9,6.1c-5.6,4.8-8.7,11.4-9,18l22.8,23.6c5.7,0,11.5-2,16.3-6.1,10.4-8.8,12.1-23.9,3.8-33.7h0Z"/>
</svg>