<svg width="64" height="64" viewBox="0 0 64 64" fill="none" xmlns="http://www.w3.org/2000/svg">
<path d="M54.2598 9.59C48.3798 3.73 34.8398 -1.67 22.0198 11.12C13.5398 19.58 10.5098 30.26 22.0198 41.75C33.5398 53.23 44.2498 50.21 52.7298 41.75C65.5498 28.96 60.1398 15.45 54.2698 9.59H54.2598Z" fill="#EF4444"/>
<path d="M31.0598 48.03L15.6998 32.72C15.6998 32.72 18.9298 40.22 13.3998 45.74C13.3998 45.74 8.7298 50.4 3.7998 54.66C4.3498 55.76 4.1398 55.92 6.2098 57.98C7.8898 59.65 8.0098 59.53 8.9298 60.05C13.2398 55.08 18.0098 50.33 18.0098 50.33C23.5398 44.81 31.0598 48.03 31.0598 48.03Z" fill="#FED0AC"/>
<g opacity="0.5">
<path d="M9.08957 59.87C12.2296 56.26 15.5796 52.8 17.1296 51.22L25.3696 42.35L21.4096 38.39L12.5196 46.61C10.9296 48.16 7.44957 51.51 3.80957 54.65C4.35957 55.75 4.14957 55.91 6.21957 57.97C7.88957 59.63 8.01957 59.52 8.91957 60.03C8.96957 59.98 9.01957 59.94 9.06957 59.89L9.09957 59.86L9.08957 59.87Z" fill="#D3976E"/>
</g>
<path d="M7.5 59.17C8.07 59.63 8.34 59.71 8.92 60.04C8.97 59.99 9.02 59.95 9.07 59.9L9.1 59.87C12.24 56.26 15.59 52.8 17.14 51.22L25.38 42.35L23.11 43.72L7.51 59.17H7.5Z" fill="#D3976E"/>
<path d="M31.06 48.03L25.36 42.35L17.71 50.58C19.25 49.07 23.81 45.56 31.05 48.03H31.06Z" fill="#3E4347"/>
<path d="M15.7099 32.72L21.4099 38.4L13.1499 46.03C14.6699 44.49 18.1899 39.94 15.7099 32.72Z" fill="#3E4347"/>
</svg>
