<svg width="64" height="64" viewBox="0 0 64 64" fill="none" xmlns="http://www.w3.org/2000/svg">
<circle cx="48.2273" cy="45.8636" r="4.77273" fill="white"/>
<path d="M43.2348 18.3892C39.4786 14.6458 30.8291 11.1963 22.6396 19.3666C17.2225 24.7709 15.2869 31.5934 22.6396 38.9333C29.9987 46.2668 36.8403 44.3376 42.2574 38.9333C50.4469 30.7629 46.9909 22.1327 43.2411 18.3892H43.2348Z" fill="white"/>
<path d="M26.7354 41.9783C26.3881 41.9212 26.0038 41.8766 25.5928 41.8582C23.9111 41.783 21.7577 42.1453 19.9023 43.8875L19.7246 44.0604H19.7236L19.7227 44.0623C19.7211 44.0638 19.7187 44.0663 19.7158 44.0692C19.7098 44.0751 19.7001 44.0839 19.6885 44.0955C19.6652 44.1188 19.6313 44.1534 19.5869 44.1981C19.4976 44.2878 19.3672 44.42 19.2021 44.5877C18.8722 44.9231 18.4033 45.4028 17.8486 45.9822C16.8095 47.0679 15.4668 48.5063 14.1631 49.9959C14.1558 49.9921 14.1486 49.9879 14.1416 49.9842C14.0433 49.9323 13.9637 49.8882 13.873 49.826C13.6858 49.6974 13.4249 49.4762 12.8916 48.9461C12.2351 48.2927 11.972 47.9715 11.8281 47.744C11.7587 47.6341 11.7122 47.5387 11.6592 47.4197C11.6442 47.3861 11.6259 47.3502 11.6084 47.3104C13.0906 46.0187 14.5175 44.695 15.5918 43.6727C16.1633 43.1288 16.6366 42.6704 16.9668 42.3475C17.1319 42.186 17.2613 42.0578 17.3496 41.9705C17.3936 41.9271 17.4273 41.8936 17.4502 41.8709C17.4615 41.8597 17.4707 41.8514 17.4766 41.8455L17.4854 41.8367V41.8358C19.38 39.9446 19.7699 37.7108 19.6914 35.9783C19.6728 35.5672 19.627 35.1829 19.5693 34.8358L26.7354 41.9783Z" fill="white" stroke="white"/>
</svg>
