<?xml version="1.0" encoding="UTF-8"?>
<svg id="Ebene_1" xmlns="http://www.w3.org/2000/svg" version="1.1" viewBox="0 0 49.5 60">
  <!-- Generator: Adobe Illustrator 30.5.1, SVG Export Plug-In . SVG Version: 2.1.4 Build 3)  -->
  <defs>
    <style>
      .st0 {
        fill: #3f7cf4;
      }
    </style>
  </defs>
  <path class="st0" d="M29.9,33c2.6-1.6,4.2-4.1,5.7-6.7,9.3-1.6,13.6-12,13.9-21,0-1.2-.6-2.1-1.9-2.1h-6.6c0-1.4,0-2.4-.5-3.2H8.8l-.3,3.2H2.1c-.5,0-1.4.3-1.7.6C.2,4.1,0,4.9,0,5.4c.3,9.3,4.8,19.3,14,21.1,1.5,2.8,3.3,5.1,5.8,6.8,3.1,2,1.9,6.2.5,10.2h-7.9v9.6h-4v7h32.4v-7c0,0-3.8,0-3.8,0v-9.6h-7.9c-.9-2.3-1.5-4.8-1.4-7.3,0-1.5,1-2.3,2.1-3ZM40.8,6.6h5.3c-.5,6-3,12.7-8.5,15.6,1.7-5,2.8-10,3.3-15.6ZM7.3,18.1c-2.3-3.4-3.5-7.2-3.8-11.4h5.2c.4,5.3,1.4,10.1,3.2,15.5-1.9-.9-3.3-2.4-4.6-4.1Z"/>
</svg>