<?xml version="1.0" encoding="UTF-8"?>
<svg id="Ebene_1" data-name="Ebene 1" xmlns="http://www.w3.org/2000/svg" viewBox="0 0 64 64">
  <defs>
    <style>
      .cls-1 {
        fill: #3f7cf4;
      }
    </style>
  </defs>
  <path class="cls-1" d="M37.79,35.04c2.15-1.36,3.56-3.44,4.83-5.63,7.81-1.37,11.47-10.1,11.72-17.68.03-.98-.53-1.77-1.59-1.77l-5.58-.03c.07-1.14.03-1.95-.41-2.68h-26.7l-.28,2.69h-5.3c-.45.02-1.21.22-1.44.5-.19.24-.36.96-.35,1.31.23,7.79,4,16.27,11.78,17.71,1.24,2.32,2.74,4.32,4.91,5.68,2.62,1.64,1.56,5.21.43,8.54h-6.62v8.08h-3.38v5.92h27.24l.06-5.92h-3.27l-.07-8.08h-6.56c-.76-1.92-1.26-4.01-1.16-6.1.07-1.23.8-1.94,1.74-2.54ZM47.02,12.84l4.42-.02c-.44,5.07-2.53,10.68-7.16,13.12,1.42-4.22,2.38-8.4,2.74-13.1ZM18.82,22.46c-1.9-2.88-2.96-6.02-3.2-9.62l4.39-.03c.32,4.47,1.2,8.54,2.7,13.09-1.6-.75-2.81-2.02-3.89-3.44Z"/>
</svg>